<mxfile host="app.diagrams.net" modified="2024-03-10T13:06:20.563Z" agent="Mozilla/5.0 (Windows NT 10.0; Win64; x64; rv:123.0) Gecko/20100101 Firefox/123.0" etag="aB12teZk9VO3dWV2Sjl5" version="24.0.4" type="github" pages="3">
  <diagram name="第 1 页" id="bq8Kn4M6z7i4zApQ9tgd">
    <mxGraphModel dx="2157" dy="2216" grid="1" gridSize="10" guides="1" tooltips="1" connect="1" arrows="1" fold="1" page="1" pageScale="1" pageWidth="1169" pageHeight="827" math="0" shadow="0">
      <root>
        <mxCell id="0" />
        <mxCell id="1" parent="0" />
        <mxCell id="cElWSuAkXZBkrs_C6eUS-318" value="" style="endArrow=none;html=1;rounded=0;fillColor=#f8cecc;strokeColor=#b85450;endFill=0;" edge="1" parent="1">
          <mxGeometry width="50" height="50" relative="1" as="geometry">
            <mxPoint x="-920" y="-1580" as="sourcePoint" />
            <mxPoint x="-460" y="-1580" as="targetPoint" />
          </mxGeometry>
        </mxCell>
        <mxCell id="cElWSuAkXZBkrs_C6eUS-359" value="" style="group" vertex="1" connectable="0" parent="1">
          <mxGeometry x="-890" y="-1540" width="130" height="190" as="geometry" />
        </mxCell>
        <mxCell id="cElWSuAkXZBkrs_C6eUS-315" value="" style="rounded=1;whiteSpace=wrap;html=1;strokeColor=#6c8ebf;fillColor=#dae8fc;opacity=60;" vertex="1" parent="cElWSuAkXZBkrs_C6eUS-359">
          <mxGeometry width="130" height="190" as="geometry" />
        </mxCell>
        <mxCell id="cElWSuAkXZBkrs_C6eUS-320" value="&lt;font size=&quot;1&quot;&gt;&lt;b style=&quot;font-size: 14px;&quot;&gt;GAT&lt;/b&gt;&lt;/font&gt;" style="rounded=1;whiteSpace=wrap;html=1;dashed=1;fillStyle=dots;strokeColor=none;fillColor=none;" vertex="1" parent="cElWSuAkXZBkrs_C6eUS-359">
          <mxGeometry x="5" y="5" width="40" height="20" as="geometry" />
        </mxCell>
        <mxCell id="cElWSuAkXZBkrs_C6eUS-322" value="" style="ellipse;whiteSpace=wrap;html=1;aspect=fixed;fillColor=#dae8fc;strokeColor=#6c8ebf;opacity=60;" vertex="1" parent="cElWSuAkXZBkrs_C6eUS-359">
          <mxGeometry x="25" y="40" width="20" height="20" as="geometry" />
        </mxCell>
        <mxCell id="cElWSuAkXZBkrs_C6eUS-323" value="" style="ellipse;whiteSpace=wrap;html=1;aspect=fixed;fillColor=#dae8fc;strokeColor=#6c8ebf;opacity=60;" vertex="1" parent="cElWSuAkXZBkrs_C6eUS-359">
          <mxGeometry x="60" y="50" width="20" height="20" as="geometry" />
        </mxCell>
        <mxCell id="cElWSuAkXZBkrs_C6eUS-324" value="" style="ellipse;whiteSpace=wrap;html=1;aspect=fixed;fillColor=#dae8fc;strokeColor=#6c8ebf;opacity=60;" vertex="1" parent="cElWSuAkXZBkrs_C6eUS-359">
          <mxGeometry x="10" y="95" width="20" height="20" as="geometry" />
        </mxCell>
        <mxCell id="cElWSuAkXZBkrs_C6eUS-325" value="" style="ellipse;whiteSpace=wrap;html=1;aspect=fixed;fillColor=#dae8fc;strokeColor=#6c8ebf;opacity=60;" vertex="1" parent="cElWSuAkXZBkrs_C6eUS-359">
          <mxGeometry x="55" y="105" width="20" height="20" as="geometry" />
        </mxCell>
        <mxCell id="cElWSuAkXZBkrs_C6eUS-326" value="" style="ellipse;whiteSpace=wrap;html=1;aspect=fixed;fillColor=#dae8fc;strokeColor=#6c8ebf;opacity=60;" vertex="1" parent="cElWSuAkXZBkrs_C6eUS-359">
          <mxGeometry x="25" y="140" width="20" height="20" as="geometry" />
        </mxCell>
        <mxCell id="cElWSuAkXZBkrs_C6eUS-327" value="" style="endArrow=none;html=1;rounded=0;exitX=1;exitY=0.5;exitDx=0;exitDy=0;entryX=0.071;entryY=0.315;entryDx=0;entryDy=0;entryPerimeter=0;fillColor=#dae8fc;strokeColor=#6c8ebf;opacity=60;" edge="1" parent="cElWSuAkXZBkrs_C6eUS-359" source="cElWSuAkXZBkrs_C6eUS-322" target="cElWSuAkXZBkrs_C6eUS-323">
          <mxGeometry width="50" height="50" relative="1" as="geometry">
            <mxPoint x="410" y="240" as="sourcePoint" />
            <mxPoint x="90" y="70" as="targetPoint" />
          </mxGeometry>
        </mxCell>
        <mxCell id="cElWSuAkXZBkrs_C6eUS-328" value="" style="endArrow=none;html=1;rounded=0;exitX=1;exitY=0;exitDx=0;exitDy=0;entryX=0;entryY=1;entryDx=0;entryDy=0;fillColor=#dae8fc;strokeColor=#6c8ebf;opacity=60;" edge="1" parent="cElWSuAkXZBkrs_C6eUS-359" source="cElWSuAkXZBkrs_C6eUS-324" target="cElWSuAkXZBkrs_C6eUS-323">
          <mxGeometry width="50" height="50" relative="1" as="geometry">
            <mxPoint x="130" y="95" as="sourcePoint" />
            <mxPoint x="180" y="45" as="targetPoint" />
          </mxGeometry>
        </mxCell>
        <mxCell id="cElWSuAkXZBkrs_C6eUS-329" value="" style="endArrow=none;html=1;rounded=0;exitX=0.93;exitY=0.75;exitDx=0;exitDy=0;entryX=0.09;entryY=0.21;entryDx=0;entryDy=0;exitPerimeter=0;entryPerimeter=0;fillColor=#dae8fc;strokeColor=#6c8ebf;opacity=60;" edge="1" parent="cElWSuAkXZBkrs_C6eUS-359" source="cElWSuAkXZBkrs_C6eUS-324" target="cElWSuAkXZBkrs_C6eUS-325">
          <mxGeometry width="50" height="50" relative="1" as="geometry">
            <mxPoint x="77" y="103" as="sourcePoint" />
            <mxPoint x="93" y="87" as="targetPoint" />
          </mxGeometry>
        </mxCell>
        <mxCell id="cElWSuAkXZBkrs_C6eUS-330" value="" style="endArrow=none;html=1;rounded=0;exitX=1;exitY=0.5;exitDx=0;exitDy=0;entryX=0.119;entryY=0.839;entryDx=0;entryDy=0;entryPerimeter=0;fillColor=#dae8fc;strokeColor=#6c8ebf;opacity=60;" edge="1" parent="cElWSuAkXZBkrs_C6eUS-359" source="cElWSuAkXZBkrs_C6eUS-326" target="cElWSuAkXZBkrs_C6eUS-325">
          <mxGeometry width="50" height="50" relative="1" as="geometry">
            <mxPoint x="100" y="145" as="sourcePoint" />
            <mxPoint x="150" y="95" as="targetPoint" />
          </mxGeometry>
        </mxCell>
        <mxCell id="cElWSuAkXZBkrs_C6eUS-331" value="" style="endArrow=none;html=1;rounded=0;entryX=0.5;entryY=0.967;entryDx=0;entryDy=0;entryPerimeter=0;exitX=0.578;exitY=0.017;exitDx=0;exitDy=0;exitPerimeter=0;fillColor=#dae8fc;strokeColor=#6c8ebf;opacity=60;" edge="1" parent="cElWSuAkXZBkrs_C6eUS-359" source="cElWSuAkXZBkrs_C6eUS-325" target="cElWSuAkXZBkrs_C6eUS-323">
          <mxGeometry width="50" height="50" relative="1" as="geometry">
            <mxPoint x="50" y="170" as="sourcePoint" />
            <mxPoint x="100" y="120" as="targetPoint" />
          </mxGeometry>
        </mxCell>
        <mxCell id="cElWSuAkXZBkrs_C6eUS-335" value="" style="ellipse;whiteSpace=wrap;html=1;aspect=fixed;fillColor=#dae8fc;strokeColor=#6c8ebf;opacity=60;" vertex="1" parent="cElWSuAkXZBkrs_C6eUS-359">
          <mxGeometry x="90" y="140" width="20" height="20" as="geometry" />
        </mxCell>
        <mxCell id="cElWSuAkXZBkrs_C6eUS-336" value="" style="endArrow=none;html=1;rounded=0;exitX=0;exitY=0;exitDx=0;exitDy=0;entryX=0.869;entryY=0.835;entryDx=0;entryDy=0;entryPerimeter=0;fillColor=#dae8fc;strokeColor=#6c8ebf;opacity=60;" edge="1" parent="cElWSuAkXZBkrs_C6eUS-359" source="cElWSuAkXZBkrs_C6eUS-335" target="cElWSuAkXZBkrs_C6eUS-325">
          <mxGeometry width="50" height="50" relative="1" as="geometry">
            <mxPoint x="55" y="160" as="sourcePoint" />
            <mxPoint x="67" y="132" as="targetPoint" />
          </mxGeometry>
        </mxCell>
        <mxCell id="cElWSuAkXZBkrs_C6eUS-338" value="" style="ellipse;whiteSpace=wrap;html=1;aspect=fixed;fillColor=#dae8fc;strokeColor=#6c8ebf;opacity=60;" vertex="1" parent="cElWSuAkXZBkrs_C6eUS-359">
          <mxGeometry x="100" y="40" width="20" height="20" as="geometry" />
        </mxCell>
        <mxCell id="cElWSuAkXZBkrs_C6eUS-339" value="" style="endArrow=none;html=1;rounded=0;exitX=1;exitY=0;exitDx=0;exitDy=0;entryX=0;entryY=1;entryDx=0;entryDy=0;fillColor=#dae8fc;strokeColor=#6c8ebf;opacity=60;" edge="1" parent="cElWSuAkXZBkrs_C6eUS-359" source="cElWSuAkXZBkrs_C6eUS-325" target="cElWSuAkXZBkrs_C6eUS-338">
          <mxGeometry width="50" height="50" relative="1" as="geometry">
            <mxPoint x="37" y="108" as="sourcePoint" />
            <mxPoint x="73" y="77" as="targetPoint" />
          </mxGeometry>
        </mxCell>
        <mxCell id="cElWSuAkXZBkrs_C6eUS-340" value="" style="endArrow=none;html=1;rounded=0;exitX=0.5;exitY=0;exitDx=0;exitDy=0;entryX=0;entryY=1;entryDx=0;entryDy=0;fillColor=#dae8fc;strokeColor=#6c8ebf;opacity=60;" edge="1" parent="cElWSuAkXZBkrs_C6eUS-359" source="cElWSuAkXZBkrs_C6eUS-324" target="cElWSuAkXZBkrs_C6eUS-322">
          <mxGeometry width="50" height="50" relative="1" as="geometry">
            <mxPoint x="82" y="118" as="sourcePoint" />
            <mxPoint x="120" y="70" as="targetPoint" />
          </mxGeometry>
        </mxCell>
        <mxCell id="cElWSuAkXZBkrs_C6eUS-319" value="&lt;b&gt;&lt;font style=&quot;font-size: 16px;&quot;&gt;h&lt;sub&gt;t-1,n&lt;/sub&gt;&lt;/font&gt;&lt;/b&gt;" style="rhombus;whiteSpace=wrap;html=1;fillColor=#dae8fc;strokeColor=#6c8ebf;" vertex="1" parent="cElWSuAkXZBkrs_C6eUS-359">
          <mxGeometry x="30" y="60" width="70" height="70" as="geometry" />
        </mxCell>
        <mxCell id="cElWSuAkXZBkrs_C6eUS-382" value="" style="endArrow=blockThin;html=1;rounded=0;curved=0;dashed=1;strokeWidth=3;fillColor=#f8cecc;strokeColor=#b85450;endFill=1;jumpSize=0;" edge="1" parent="cElWSuAkXZBkrs_C6eUS-359">
          <mxGeometry width="50" height="50" relative="1" as="geometry">
            <mxPoint x="80" y="70" as="sourcePoint" />
            <mxPoint x="80" y="-20" as="targetPoint" />
          </mxGeometry>
        </mxCell>
        <mxCell id="cElWSuAkXZBkrs_C6eUS-360" value="" style="group;opacity=80;" vertex="1" connectable="0" parent="1">
          <mxGeometry x="-620" y="-1540" width="130" height="190" as="geometry" />
        </mxCell>
        <mxCell id="cElWSuAkXZBkrs_C6eUS-361" value="" style="rounded=1;whiteSpace=wrap;html=1;strokeColor=#6c8ebf;fillColor=#dae8fc;opacity=80;" vertex="1" parent="cElWSuAkXZBkrs_C6eUS-360">
          <mxGeometry width="130" height="190" as="geometry" />
        </mxCell>
        <mxCell id="cElWSuAkXZBkrs_C6eUS-362" value="&lt;font size=&quot;1&quot;&gt;&lt;b style=&quot;font-size: 14px;&quot;&gt;GAT&lt;/b&gt;&lt;/font&gt;" style="rounded=1;whiteSpace=wrap;html=1;dashed=1;fillStyle=dots;strokeColor=none;fillColor=none;opacity=80;" vertex="1" parent="cElWSuAkXZBkrs_C6eUS-360">
          <mxGeometry x="5" y="5" width="40" height="20" as="geometry" />
        </mxCell>
        <mxCell id="cElWSuAkXZBkrs_C6eUS-363" value="" style="ellipse;whiteSpace=wrap;html=1;aspect=fixed;fillColor=#dae8fc;strokeColor=#6c8ebf;opacity=80;" vertex="1" parent="cElWSuAkXZBkrs_C6eUS-360">
          <mxGeometry x="25" y="40" width="20" height="20" as="geometry" />
        </mxCell>
        <mxCell id="cElWSuAkXZBkrs_C6eUS-364" value="" style="ellipse;whiteSpace=wrap;html=1;aspect=fixed;fillColor=#dae8fc;strokeColor=#6c8ebf;opacity=80;" vertex="1" parent="cElWSuAkXZBkrs_C6eUS-360">
          <mxGeometry x="60" y="50" width="20" height="20" as="geometry" />
        </mxCell>
        <mxCell id="cElWSuAkXZBkrs_C6eUS-365" value="" style="ellipse;whiteSpace=wrap;html=1;aspect=fixed;fillColor=#dae8fc;strokeColor=#6c8ebf;opacity=80;" vertex="1" parent="cElWSuAkXZBkrs_C6eUS-360">
          <mxGeometry x="10" y="95" width="20" height="20" as="geometry" />
        </mxCell>
        <mxCell id="cElWSuAkXZBkrs_C6eUS-366" value="" style="ellipse;whiteSpace=wrap;html=1;aspect=fixed;fillColor=#dae8fc;strokeColor=#6c8ebf;opacity=80;" vertex="1" parent="cElWSuAkXZBkrs_C6eUS-360">
          <mxGeometry x="55" y="105" width="20" height="20" as="geometry" />
        </mxCell>
        <mxCell id="cElWSuAkXZBkrs_C6eUS-367" value="" style="ellipse;whiteSpace=wrap;html=1;aspect=fixed;fillColor=#dae8fc;strokeColor=#6c8ebf;opacity=80;" vertex="1" parent="cElWSuAkXZBkrs_C6eUS-360">
          <mxGeometry x="25" y="140" width="20" height="20" as="geometry" />
        </mxCell>
        <mxCell id="cElWSuAkXZBkrs_C6eUS-368" value="" style="endArrow=none;html=1;rounded=0;exitX=1;exitY=0.5;exitDx=0;exitDy=0;entryX=0.071;entryY=0.315;entryDx=0;entryDy=0;entryPerimeter=0;fillColor=#dae8fc;strokeColor=#6c8ebf;opacity=80;" edge="1" parent="cElWSuAkXZBkrs_C6eUS-360" source="cElWSuAkXZBkrs_C6eUS-363" target="cElWSuAkXZBkrs_C6eUS-364">
          <mxGeometry width="50" height="50" relative="1" as="geometry">
            <mxPoint x="410" y="240" as="sourcePoint" />
            <mxPoint x="90" y="70" as="targetPoint" />
          </mxGeometry>
        </mxCell>
        <mxCell id="cElWSuAkXZBkrs_C6eUS-369" value="" style="endArrow=none;html=1;rounded=0;exitX=1;exitY=0;exitDx=0;exitDy=0;entryX=0;entryY=1;entryDx=0;entryDy=0;fillColor=#dae8fc;strokeColor=#6c8ebf;opacity=80;" edge="1" parent="cElWSuAkXZBkrs_C6eUS-360" source="cElWSuAkXZBkrs_C6eUS-365" target="cElWSuAkXZBkrs_C6eUS-364">
          <mxGeometry width="50" height="50" relative="1" as="geometry">
            <mxPoint x="130" y="95" as="sourcePoint" />
            <mxPoint x="180" y="45" as="targetPoint" />
          </mxGeometry>
        </mxCell>
        <mxCell id="cElWSuAkXZBkrs_C6eUS-370" value="" style="endArrow=none;html=1;rounded=0;exitX=0.93;exitY=0.75;exitDx=0;exitDy=0;entryX=0.09;entryY=0.21;entryDx=0;entryDy=0;exitPerimeter=0;entryPerimeter=0;fillColor=#dae8fc;strokeColor=#6c8ebf;opacity=80;" edge="1" parent="cElWSuAkXZBkrs_C6eUS-360" source="cElWSuAkXZBkrs_C6eUS-365" target="cElWSuAkXZBkrs_C6eUS-366">
          <mxGeometry width="50" height="50" relative="1" as="geometry">
            <mxPoint x="77" y="103" as="sourcePoint" />
            <mxPoint x="93" y="87" as="targetPoint" />
          </mxGeometry>
        </mxCell>
        <mxCell id="cElWSuAkXZBkrs_C6eUS-371" value="" style="endArrow=none;html=1;rounded=0;exitX=1;exitY=0.5;exitDx=0;exitDy=0;entryX=0.119;entryY=0.839;entryDx=0;entryDy=0;entryPerimeter=0;fillColor=#dae8fc;strokeColor=#6c8ebf;opacity=80;" edge="1" parent="cElWSuAkXZBkrs_C6eUS-360" source="cElWSuAkXZBkrs_C6eUS-367" target="cElWSuAkXZBkrs_C6eUS-366">
          <mxGeometry width="50" height="50" relative="1" as="geometry">
            <mxPoint x="100" y="145" as="sourcePoint" />
            <mxPoint x="150" y="95" as="targetPoint" />
          </mxGeometry>
        </mxCell>
        <mxCell id="cElWSuAkXZBkrs_C6eUS-372" value="" style="endArrow=none;html=1;rounded=0;entryX=0.5;entryY=0.967;entryDx=0;entryDy=0;entryPerimeter=0;exitX=0.578;exitY=0.017;exitDx=0;exitDy=0;exitPerimeter=0;fillColor=#dae8fc;strokeColor=#6c8ebf;opacity=80;" edge="1" parent="cElWSuAkXZBkrs_C6eUS-360" source="cElWSuAkXZBkrs_C6eUS-366" target="cElWSuAkXZBkrs_C6eUS-364">
          <mxGeometry width="50" height="50" relative="1" as="geometry">
            <mxPoint x="50" y="170" as="sourcePoint" />
            <mxPoint x="100" y="120" as="targetPoint" />
          </mxGeometry>
        </mxCell>
        <mxCell id="cElWSuAkXZBkrs_C6eUS-373" value="" style="ellipse;whiteSpace=wrap;html=1;aspect=fixed;fillColor=#dae8fc;strokeColor=#6c8ebf;opacity=80;" vertex="1" parent="cElWSuAkXZBkrs_C6eUS-360">
          <mxGeometry x="90" y="140" width="20" height="20" as="geometry" />
        </mxCell>
        <mxCell id="cElWSuAkXZBkrs_C6eUS-374" value="" style="endArrow=none;html=1;rounded=0;exitX=0;exitY=0;exitDx=0;exitDy=0;entryX=0.869;entryY=0.835;entryDx=0;entryDy=0;entryPerimeter=0;fillColor=#dae8fc;strokeColor=#6c8ebf;opacity=80;" edge="1" parent="cElWSuAkXZBkrs_C6eUS-360" source="cElWSuAkXZBkrs_C6eUS-373" target="cElWSuAkXZBkrs_C6eUS-366">
          <mxGeometry width="50" height="50" relative="1" as="geometry">
            <mxPoint x="55" y="160" as="sourcePoint" />
            <mxPoint x="67" y="132" as="targetPoint" />
          </mxGeometry>
        </mxCell>
        <mxCell id="cElWSuAkXZBkrs_C6eUS-375" value="" style="ellipse;whiteSpace=wrap;html=1;aspect=fixed;fillColor=#dae8fc;strokeColor=#6c8ebf;opacity=80;" vertex="1" parent="cElWSuAkXZBkrs_C6eUS-360">
          <mxGeometry x="100" y="40" width="20" height="20" as="geometry" />
        </mxCell>
        <mxCell id="cElWSuAkXZBkrs_C6eUS-376" value="" style="endArrow=none;html=1;rounded=0;exitX=1;exitY=0;exitDx=0;exitDy=0;entryX=0;entryY=1;entryDx=0;entryDy=0;fillColor=#dae8fc;strokeColor=#6c8ebf;opacity=80;" edge="1" parent="cElWSuAkXZBkrs_C6eUS-360" source="cElWSuAkXZBkrs_C6eUS-366" target="cElWSuAkXZBkrs_C6eUS-375">
          <mxGeometry width="50" height="50" relative="1" as="geometry">
            <mxPoint x="37" y="108" as="sourcePoint" />
            <mxPoint x="73" y="77" as="targetPoint" />
          </mxGeometry>
        </mxCell>
        <mxCell id="cElWSuAkXZBkrs_C6eUS-377" value="" style="endArrow=none;html=1;rounded=0;exitX=0.5;exitY=0;exitDx=0;exitDy=0;entryX=0;entryY=1;entryDx=0;entryDy=0;fillColor=#dae8fc;strokeColor=#6c8ebf;opacity=80;" edge="1" parent="cElWSuAkXZBkrs_C6eUS-360" source="cElWSuAkXZBkrs_C6eUS-365" target="cElWSuAkXZBkrs_C6eUS-363">
          <mxGeometry width="50" height="50" relative="1" as="geometry">
            <mxPoint x="82" y="118" as="sourcePoint" />
            <mxPoint x="120" y="70" as="targetPoint" />
          </mxGeometry>
        </mxCell>
        <mxCell id="cElWSuAkXZBkrs_C6eUS-378" value="&lt;b&gt;&lt;font style=&quot;font-size: 16px;&quot;&gt;h&lt;sub&gt;t,n&lt;/sub&gt;&lt;/font&gt;&lt;/b&gt;" style="rhombus;whiteSpace=wrap;html=1;fillColor=#dae8fc;strokeColor=#6c8ebf;" vertex="1" parent="cElWSuAkXZBkrs_C6eUS-360">
          <mxGeometry x="30" y="60" width="70" height="70" as="geometry" />
        </mxCell>
        <mxCell id="cElWSuAkXZBkrs_C6eUS-379" value="" style="endArrow=none;html=1;rounded=0;fillColor=#f8cecc;strokeColor=#b85450;" edge="1" parent="1">
          <mxGeometry width="50" height="50" relative="1" as="geometry">
            <mxPoint x="-920" y="-1560" as="sourcePoint" />
            <mxPoint x="-840" y="-1560" as="targetPoint" />
          </mxGeometry>
        </mxCell>
        <mxCell id="cElWSuAkXZBkrs_C6eUS-381" value="" style="endArrow=blockThin;html=1;rounded=0;curved=0;strokeWidth=3;fillColor=#f8cecc;strokeColor=#b85450;endFill=1;entryX=0.294;entryY=0.194;entryDx=0;entryDy=0;entryPerimeter=0;jumpSize=0;dashed=1;" edge="1" parent="1" target="cElWSuAkXZBkrs_C6eUS-319">
          <mxGeometry width="50" height="50" relative="1" as="geometry">
            <mxPoint x="-840" y="-1560" as="sourcePoint" />
            <mxPoint x="-840" y="-1490" as="targetPoint" />
          </mxGeometry>
        </mxCell>
        <mxCell id="cElWSuAkXZBkrs_C6eUS-385" value="" style="endArrow=blockThin;html=1;rounded=0;curved=0;dashed=1;strokeWidth=3;fillColor=#f8cecc;strokeColor=#b85450;endFill=1;jumpSize=0;" edge="1" parent="1">
          <mxGeometry width="50" height="50" relative="1" as="geometry">
            <mxPoint x="-541" y="-1470" as="sourcePoint" />
            <mxPoint x="-541" y="-1560" as="targetPoint" />
          </mxGeometry>
        </mxCell>
        <mxCell id="cElWSuAkXZBkrs_C6eUS-386" value="" style="endArrow=none;html=1;rounded=0;fillColor=#f8cecc;strokeColor=#b85450;" edge="1" parent="1">
          <mxGeometry width="50" height="50" relative="1" as="geometry">
            <mxPoint x="-810" y="-1560" as="sourcePoint" />
            <mxPoint x="-570" y="-1560" as="targetPoint" />
          </mxGeometry>
        </mxCell>
        <mxCell id="cElWSuAkXZBkrs_C6eUS-387" value="" style="endArrow=blockThin;html=1;rounded=0;curved=0;strokeWidth=3;fillColor=#f8cecc;strokeColor=#b85450;endFill=1;entryX=0.294;entryY=0.194;entryDx=0;entryDy=0;entryPerimeter=0;jumpSize=0;dashed=1;" edge="1" parent="1">
          <mxGeometry width="50" height="50" relative="1" as="geometry">
            <mxPoint x="-571" y="-1560" as="sourcePoint" />
            <mxPoint x="-570" y="-1466" as="targetPoint" />
          </mxGeometry>
        </mxCell>
        <mxCell id="cElWSuAkXZBkrs_C6eUS-388" value="" style="endArrow=classic;html=1;rounded=0;fillColor=#f8cecc;strokeColor=#b85450;endFill=1;" edge="1" parent="1">
          <mxGeometry width="50" height="50" relative="1" as="geometry">
            <mxPoint x="-541" y="-1560" as="sourcePoint" />
            <mxPoint x="-460" y="-1560" as="targetPoint" />
          </mxGeometry>
        </mxCell>
        <mxCell id="cElWSuAkXZBkrs_C6eUS-1" value="&lt;font size=&quot;1&quot;&gt;&lt;b&gt;&lt;font style=&quot;font-size: 14px;&quot;&gt;LSTM&lt;/font&gt;&lt;/b&gt;&lt;/font&gt;" style="rounded=1;whiteSpace=wrap;html=1;strokeColor=#b85450;fillColor=#f8cecc;opacity=80;" vertex="1" parent="1">
          <mxGeometry x="-890" y="-1589" width="400" height="40" as="geometry" />
        </mxCell>
        <mxCell id="cElWSuAkXZBkrs_C6eUS-389" value="&lt;b&gt;&lt;font style=&quot;font-size: 16px;&quot;&gt;Z&lt;sub&gt;t,n&lt;/sub&gt;&lt;/font&gt;&lt;/b&gt;" style="ellipse;whiteSpace=wrap;html=1;aspect=fixed;fillColor=#d5e8d4;strokeColor=#82b366;" vertex="1" parent="1">
          <mxGeometry x="-710" y="-1510" width="50" height="50" as="geometry" />
        </mxCell>
        <mxCell id="cElWSuAkXZBkrs_C6eUS-390" value="&lt;b&gt;&lt;font style=&quot;font-size: 16px;&quot;&gt;v&lt;sub&gt;t,n&lt;/sub&gt;&lt;/font&gt;&lt;/b&gt;" style="whiteSpace=wrap;html=1;aspect=fixed;fillColor=#bac8d3;strokeColor=#23445d;" vertex="1" parent="1">
          <mxGeometry x="-710" y="-1430" width="50" height="50" as="geometry" />
        </mxCell>
        <mxCell id="cElWSuAkXZBkrs_C6eUS-392" value="" style="endArrow=none;dashed=1;html=1;rounded=0;" edge="1" parent="1">
          <mxGeometry width="50" height="50" relative="1" as="geometry">
            <mxPoint x="-900" y="-1320" as="sourcePoint" />
            <mxPoint x="-900" y="-1600" as="targetPoint" />
          </mxGeometry>
        </mxCell>
        <mxCell id="cElWSuAkXZBkrs_C6eUS-393" value="" style="endArrow=none;dashed=1;html=1;rounded=0;" edge="1" parent="1">
          <mxGeometry width="50" height="50" relative="1" as="geometry">
            <mxPoint x="-740" y="-1320" as="sourcePoint" />
            <mxPoint x="-740" y="-1600" as="targetPoint" />
          </mxGeometry>
        </mxCell>
        <mxCell id="cElWSuAkXZBkrs_C6eUS-394" value="" style="endArrow=none;dashed=1;html=1;rounded=0;" edge="1" parent="1">
          <mxGeometry width="50" height="50" relative="1" as="geometry">
            <mxPoint x="-480" y="-1320" as="sourcePoint" />
            <mxPoint x="-480" y="-1600" as="targetPoint" />
          </mxGeometry>
        </mxCell>
        <mxCell id="cElWSuAkXZBkrs_C6eUS-395" value="&lt;font style=&quot;font-size: 16px;&quot;&gt;&lt;b&gt;t-1时刻&lt;/b&gt;&lt;/font&gt;" style="rounded=1;whiteSpace=wrap;html=1;dashed=1;fillStyle=dots;strokeColor=none;fillColor=none;" vertex="1" parent="1">
          <mxGeometry x="-860" y="-1340" width="60" height="20" as="geometry" />
        </mxCell>
        <mxCell id="cElWSuAkXZBkrs_C6eUS-396" value="&lt;font style=&quot;font-size: 16px;&quot;&gt;&lt;b&gt;t时刻&lt;/b&gt;&lt;/font&gt;" style="rounded=1;whiteSpace=wrap;html=1;dashed=1;fillStyle=dots;strokeColor=none;fillColor=none;" vertex="1" parent="1">
          <mxGeometry x="-643" y="-1340" width="60" height="20" as="geometry" />
        </mxCell>
        <mxCell id="cElWSuAkXZBkrs_C6eUS-398" value="" style="endArrow=blockThin;html=1;rounded=0;curved=0;dashed=1;strokeWidth=3;fillColor=#dae8fc;strokeColor=#6c8ebf;endFill=1;jumpSize=0;entryX=0;entryY=0.5;entryDx=0;entryDy=0;" edge="1" parent="1" target="cElWSuAkXZBkrs_C6eUS-389">
          <mxGeometry width="50" height="50" relative="1" as="geometry">
            <mxPoint x="-790" y="-1447" as="sourcePoint" />
            <mxPoint x="-680" y="-1500" as="targetPoint" />
          </mxGeometry>
        </mxCell>
        <mxCell id="cElWSuAkXZBkrs_C6eUS-400" value="" style="endArrow=blockThin;html=1;rounded=0;curved=0;dashed=1;strokeWidth=3;fillColor=#dae8fc;strokeColor=#6c8ebf;endFill=1;jumpSize=0;entryX=0;entryY=0.5;entryDx=0;entryDy=0;exitX=1.005;exitY=0.543;exitDx=0;exitDy=0;exitPerimeter=0;" edge="1" parent="1" source="cElWSuAkXZBkrs_C6eUS-319" target="cElWSuAkXZBkrs_C6eUS-390">
          <mxGeometry width="50" height="50" relative="1" as="geometry">
            <mxPoint x="-780" y="-1437" as="sourcePoint" />
            <mxPoint x="-700" y="-1475" as="targetPoint" />
          </mxGeometry>
        </mxCell>
        <mxCell id="cElWSuAkXZBkrs_C6eUS-401" value="" style="endArrow=blockThin;html=1;rounded=0;curved=0;dashed=1;strokeWidth=3;fillColor=#d5e8d4;strokeColor=#82b366;endFill=1;jumpSize=0;entryX=0;entryY=0.5;entryDx=0;entryDy=0;exitX=0.993;exitY=0.56;exitDx=0;exitDy=0;exitPerimeter=0;" edge="1" parent="1" source="cElWSuAkXZBkrs_C6eUS-389" target="cElWSuAkXZBkrs_C6eUS-378">
          <mxGeometry width="50" height="50" relative="1" as="geometry">
            <mxPoint x="-700" y="-1430" as="sourcePoint" />
            <mxPoint x="-620" y="-1468" as="targetPoint" />
          </mxGeometry>
        </mxCell>
        <mxCell id="cElWSuAkXZBkrs_C6eUS-402" value="" style="endArrow=blockThin;html=1;rounded=0;curved=0;dashed=1;strokeWidth=3;fillColor=#bac8d3;strokeColor=#23445d;endFill=1;jumpSize=0;entryX=0;entryY=0.5;entryDx=0;entryDy=0;exitX=1;exitY=0.5;exitDx=0;exitDy=0;" edge="1" parent="1" source="cElWSuAkXZBkrs_C6eUS-390" target="cElWSuAkXZBkrs_C6eUS-378">
          <mxGeometry width="50" height="50" relative="1" as="geometry">
            <mxPoint x="-650" y="-1472" as="sourcePoint" />
            <mxPoint x="-580" y="-1435" as="targetPoint" />
          </mxGeometry>
        </mxCell>
        <mxCell id="URMAvQDNjxK1LfOhX9lL-1" value="" style="endArrow=blockThin;html=1;rounded=0;curved=0;dashed=1;strokeWidth=3;fillColor=#d5e8d4;strokeColor=#82b366;endFill=1;jumpSize=0;exitX=0.5;exitY=1;exitDx=0;exitDy=0;" edge="1" parent="1" source="cElWSuAkXZBkrs_C6eUS-389" target="cElWSuAkXZBkrs_C6eUS-390">
          <mxGeometry width="50" height="50" relative="1" as="geometry">
            <mxPoint x="-650" y="-1472" as="sourcePoint" />
            <mxPoint x="-580" y="-1435" as="targetPoint" />
          </mxGeometry>
        </mxCell>
      </root>
    </mxGraphModel>
  </diagram>
  <diagram id="yfxalD3CdAa_scUIjGOT" name="第 2 页">
    <mxGraphModel dx="4940" dy="3799" grid="1" gridSize="10" guides="1" tooltips="1" connect="1" arrows="1" fold="1" page="1" pageScale="1" pageWidth="1169" pageHeight="827" math="0" shadow="0">
      <root>
        <mxCell id="0" />
        <mxCell id="1" parent="0" />
        <mxCell id="t-5iVMHg3pEq-Pra4Wtp-1" value="" style="rounded=1;whiteSpace=wrap;html=1;strokeColor=#6c8ebf;fillColor=#dae8fc;" vertex="1" parent="1">
          <mxGeometry x="-1140" y="-1330" width="130" height="190" as="geometry" />
        </mxCell>
        <mxCell id="t-5iVMHg3pEq-Pra4Wtp-2" value="GAT" style="rounded=1;whiteSpace=wrap;html=1;dashed=1;fillStyle=dots;strokeColor=none;fillColor=none;" vertex="1" parent="1">
          <mxGeometry x="-1130" y="-1320" width="40" height="20" as="geometry" />
        </mxCell>
        <mxCell id="t-5iVMHg3pEq-Pra4Wtp-3" value="" style="ellipse;whiteSpace=wrap;html=1;aspect=fixed;fillColor=#dae8fc;strokeColor=#6c8ebf;" vertex="1" parent="1">
          <mxGeometry x="-1115" y="-1290" width="20" height="20" as="geometry" />
        </mxCell>
        <mxCell id="t-5iVMHg3pEq-Pra4Wtp-4" value="" style="ellipse;whiteSpace=wrap;html=1;aspect=fixed;fillColor=#dae8fc;strokeColor=#6c8ebf;" vertex="1" parent="1">
          <mxGeometry x="-1080" y="-1280" width="20" height="20" as="geometry" />
        </mxCell>
        <mxCell id="t-5iVMHg3pEq-Pra4Wtp-5" value="" style="ellipse;whiteSpace=wrap;html=1;aspect=fixed;fillColor=#dae8fc;strokeColor=#6c8ebf;" vertex="1" parent="1">
          <mxGeometry x="-1130" y="-1235" width="20" height="20" as="geometry" />
        </mxCell>
        <mxCell id="t-5iVMHg3pEq-Pra4Wtp-6" value="" style="ellipse;whiteSpace=wrap;html=1;aspect=fixed;fillColor=#dae8fc;strokeColor=#6c8ebf;" vertex="1" parent="1">
          <mxGeometry x="-1085" y="-1225" width="20" height="20" as="geometry" />
        </mxCell>
        <mxCell id="t-5iVMHg3pEq-Pra4Wtp-7" value="" style="ellipse;whiteSpace=wrap;html=1;aspect=fixed;fillColor=#dae8fc;strokeColor=#6c8ebf;" vertex="1" parent="1">
          <mxGeometry x="-1115" y="-1190" width="20" height="20" as="geometry" />
        </mxCell>
        <mxCell id="t-5iVMHg3pEq-Pra4Wtp-8" value="" style="endArrow=none;html=1;rounded=0;exitX=1;exitY=0.5;exitDx=0;exitDy=0;entryX=0.071;entryY=0.315;entryDx=0;entryDy=0;entryPerimeter=0;fillColor=#dae8fc;strokeColor=#6c8ebf;" edge="1" parent="1" source="t-5iVMHg3pEq-Pra4Wtp-3" target="t-5iVMHg3pEq-Pra4Wtp-4">
          <mxGeometry width="50" height="50" relative="1" as="geometry">
            <mxPoint x="-730" y="-1090" as="sourcePoint" />
            <mxPoint x="-1050" y="-1260" as="targetPoint" />
          </mxGeometry>
        </mxCell>
        <mxCell id="t-5iVMHg3pEq-Pra4Wtp-9" value="" style="endArrow=none;html=1;rounded=0;exitX=1;exitY=0;exitDx=0;exitDy=0;entryX=0;entryY=1;entryDx=0;entryDy=0;fillColor=#dae8fc;strokeColor=#6c8ebf;" edge="1" parent="1" source="t-5iVMHg3pEq-Pra4Wtp-5" target="t-5iVMHg3pEq-Pra4Wtp-4">
          <mxGeometry width="50" height="50" relative="1" as="geometry">
            <mxPoint x="-1010" y="-1235" as="sourcePoint" />
            <mxPoint x="-960" y="-1285" as="targetPoint" />
          </mxGeometry>
        </mxCell>
        <mxCell id="t-5iVMHg3pEq-Pra4Wtp-10" value="" style="endArrow=none;html=1;rounded=0;exitX=0.93;exitY=0.75;exitDx=0;exitDy=0;entryX=0.09;entryY=0.21;entryDx=0;entryDy=0;exitPerimeter=0;entryPerimeter=0;fillColor=#dae8fc;strokeColor=#6c8ebf;" edge="1" parent="1" source="t-5iVMHg3pEq-Pra4Wtp-5" target="t-5iVMHg3pEq-Pra4Wtp-6">
          <mxGeometry width="50" height="50" relative="1" as="geometry">
            <mxPoint x="-1063" y="-1227" as="sourcePoint" />
            <mxPoint x="-1047" y="-1243" as="targetPoint" />
          </mxGeometry>
        </mxCell>
        <mxCell id="t-5iVMHg3pEq-Pra4Wtp-11" value="" style="endArrow=none;html=1;rounded=0;exitX=1;exitY=0.5;exitDx=0;exitDy=0;entryX=0.119;entryY=0.839;entryDx=0;entryDy=0;entryPerimeter=0;fillColor=#dae8fc;strokeColor=#6c8ebf;" edge="1" parent="1" source="t-5iVMHg3pEq-Pra4Wtp-7" target="t-5iVMHg3pEq-Pra4Wtp-6">
          <mxGeometry width="50" height="50" relative="1" as="geometry">
            <mxPoint x="-1040" y="-1185" as="sourcePoint" />
            <mxPoint x="-990" y="-1235" as="targetPoint" />
          </mxGeometry>
        </mxCell>
        <mxCell id="t-5iVMHg3pEq-Pra4Wtp-12" value="" style="endArrow=none;html=1;rounded=0;entryX=0.5;entryY=0.967;entryDx=0;entryDy=0;entryPerimeter=0;exitX=0.578;exitY=0.017;exitDx=0;exitDy=0;exitPerimeter=0;fillColor=#dae8fc;strokeColor=#6c8ebf;" edge="1" parent="1" source="t-5iVMHg3pEq-Pra4Wtp-6" target="t-5iVMHg3pEq-Pra4Wtp-4">
          <mxGeometry width="50" height="50" relative="1" as="geometry">
            <mxPoint x="-1090" y="-1160" as="sourcePoint" />
            <mxPoint x="-1040" y="-1210" as="targetPoint" />
          </mxGeometry>
        </mxCell>
        <mxCell id="t-5iVMHg3pEq-Pra4Wtp-13" value="" style="ellipse;whiteSpace=wrap;html=1;aspect=fixed;fillColor=#dae8fc;strokeColor=#6c8ebf;" vertex="1" parent="1">
          <mxGeometry x="-1050" y="-1190" width="20" height="20" as="geometry" />
        </mxCell>
        <mxCell id="t-5iVMHg3pEq-Pra4Wtp-14" value="" style="endArrow=none;html=1;rounded=0;exitX=0;exitY=0;exitDx=0;exitDy=0;entryX=0.869;entryY=0.835;entryDx=0;entryDy=0;entryPerimeter=0;fillColor=#dae8fc;strokeColor=#6c8ebf;" edge="1" parent="1" source="t-5iVMHg3pEq-Pra4Wtp-13" target="t-5iVMHg3pEq-Pra4Wtp-6">
          <mxGeometry width="50" height="50" relative="1" as="geometry">
            <mxPoint x="-1085" y="-1170" as="sourcePoint" />
            <mxPoint x="-1073" y="-1198" as="targetPoint" />
          </mxGeometry>
        </mxCell>
        <mxCell id="t-5iVMHg3pEq-Pra4Wtp-15" value="" style="ellipse;whiteSpace=wrap;html=1;aspect=fixed;fillColor=#dae8fc;strokeColor=#6c8ebf;" vertex="1" parent="1">
          <mxGeometry x="-1040" y="-1290" width="20" height="20" as="geometry" />
        </mxCell>
        <mxCell id="t-5iVMHg3pEq-Pra4Wtp-16" value="" style="endArrow=none;html=1;rounded=0;exitX=1;exitY=0;exitDx=0;exitDy=0;entryX=0.5;entryY=1;entryDx=0;entryDy=0;fillColor=#dae8fc;strokeColor=#6c8ebf;" edge="1" parent="1" source="t-5iVMHg3pEq-Pra4Wtp-6" target="t-5iVMHg3pEq-Pra4Wtp-15">
          <mxGeometry width="50" height="50" relative="1" as="geometry">
            <mxPoint x="-1103" y="-1222" as="sourcePoint" />
            <mxPoint x="-1067" y="-1253" as="targetPoint" />
          </mxGeometry>
        </mxCell>
        <mxCell id="t-5iVMHg3pEq-Pra4Wtp-17" value="" style="endArrow=none;html=1;rounded=0;exitX=0.5;exitY=0;exitDx=0;exitDy=0;entryX=0;entryY=1;entryDx=0;entryDy=0;fillColor=#dae8fc;strokeColor=#6c8ebf;" edge="1" parent="1" source="t-5iVMHg3pEq-Pra4Wtp-5" target="t-5iVMHg3pEq-Pra4Wtp-3">
          <mxGeometry width="50" height="50" relative="1" as="geometry">
            <mxPoint x="-1058" y="-1212" as="sourcePoint" />
            <mxPoint x="-1020" y="-1260" as="targetPoint" />
          </mxGeometry>
        </mxCell>
      </root>
    </mxGraphModel>
  </diagram>
  <diagram id="MJmvOgEhNVUoFUaJYMrp" name="第 3 页">
    <mxGraphModel dx="2074" dy="1180" grid="1" gridSize="10" guides="1" tooltips="1" connect="1" arrows="1" fold="1" page="1" pageScale="1" pageWidth="1169" pageHeight="827" math="0" shadow="0">
      <root>
        <mxCell id="0" />
        <mxCell id="1" parent="0" />
        <mxCell id="DYp9o-DkFmVBabW9ibaX-16" value="" style="shape=flexArrow;endArrow=classic;html=1;rounded=0;fillColor=#f8cecc;strokeColor=#b85450;" edge="1" parent="1">
          <mxGeometry width="50" height="50" relative="1" as="geometry">
            <mxPoint x="766.4" y="826" as="sourcePoint" />
            <mxPoint x="766.4" y="786" as="targetPoint" />
          </mxGeometry>
        </mxCell>
        <mxCell id="B7qhXa-v-29hhFYy1VIY-1" value="" style="rounded=0;whiteSpace=wrap;html=1;fillStyle=auto;strokeColor=#4D9900;fillColor=none;gradientColor=default;strokeWidth=5;fontFamily=Times New Roman;dashed=1;" vertex="1" parent="1">
          <mxGeometry x="437.75" y="414" width="330" height="328" as="geometry" />
        </mxCell>
        <mxCell id="EEJ5MkbSI87N3omZMyAo-4" value="" style="rounded=0;whiteSpace=wrap;html=1;fillStyle=auto;strokeColor=#008080;fillColor=none;gradientColor=default;strokeWidth=5;fontFamily=Times New Roman;dashed=1;" vertex="1" parent="1">
          <mxGeometry x="767.75" y="414" width="272.25" height="328" as="geometry" />
        </mxCell>
        <mxCell id="Z4D7vQt7FPXIayYJrjbk-1" value="" style="rounded=0;whiteSpace=wrap;html=1;fillStyle=auto;strokeColor=#3333FF;fillColor=none;gradientColor=default;strokeWidth=5;fontFamily=Times New Roman;dashed=1;" vertex="1" parent="1">
          <mxGeometry x="60" y="414" width="377.75" height="586" as="geometry" />
        </mxCell>
        <mxCell id="omIhpatOHkibPJl4GQFj-19" value="" style="rounded=0;whiteSpace=wrap;html=1;fillStyle=auto;strokeColor=#000000;fillColor=none;gradientColor=default;dashed=1;strokeWidth=3;fontFamily=Times New Roman;" vertex="1" parent="1">
          <mxGeometry x="91.75" y="474" width="320" height="240" as="geometry" />
        </mxCell>
        <mxCell id="Z4D7vQt7FPXIayYJrjbk-2" value="" style="rounded=0;whiteSpace=wrap;html=1;fillStyle=auto;strokeColor=#000000;fillColor=none;gradientColor=default;dashed=1;strokeWidth=3;fontFamily=Times New Roman;" vertex="1" parent="1">
          <mxGeometry x="538" y="140" width="260" height="150" as="geometry" />
        </mxCell>
        <mxCell id="Z4D7vQt7FPXIayYJrjbk-3" value="" style="whiteSpace=wrap;html=1;aspect=fixed;strokeColor=#6c8ebf;fontFamily=Times New Roman;fontSize=8.5;fillColor=#dae8fc;" vertex="1" parent="1">
          <mxGeometry x="706.5" y="168" width="60" height="60" as="geometry" />
        </mxCell>
        <mxCell id="Z4D7vQt7FPXIayYJrjbk-4" value="" style="whiteSpace=wrap;html=1;aspect=fixed;strokeColor=#d79b00;fontFamily=Times New Roman;fontSize=8.5;fillColor=#ffe6cc;" vertex="1" parent="1">
          <mxGeometry x="695.5" y="178" width="60" height="60" as="geometry" />
        </mxCell>
        <mxCell id="Z4D7vQt7FPXIayYJrjbk-5" value="" style="whiteSpace=wrap;html=1;aspect=fixed;strokeColor=#82b366;fontFamily=Times New Roman;fontSize=8.5;fillColor=#d5e8d4;" vertex="1" parent="1">
          <mxGeometry x="684.5" y="190" width="60" height="60" as="geometry" />
        </mxCell>
        <mxCell id="Z4D7vQt7FPXIayYJrjbk-6" value="" style="whiteSpace=wrap;html=1;aspect=fixed;strokeColor=#6c8ebf;fontFamily=Times New Roman;fontSize=8.5;fillColor=#dae8fc;opacity=40;" vertex="1" parent="1">
          <mxGeometry x="591.5" y="168" width="60" height="60" as="geometry" />
        </mxCell>
        <mxCell id="Z4D7vQt7FPXIayYJrjbk-7" value="" style="whiteSpace=wrap;html=1;aspect=fixed;strokeColor=#d79b00;fontFamily=Times New Roman;fontSize=8.5;fillColor=#ffe6cc;opacity=40;" vertex="1" parent="1">
          <mxGeometry x="580.5" y="178" width="60" height="60" as="geometry" />
        </mxCell>
        <mxCell id="Z4D7vQt7FPXIayYJrjbk-8" value="" style="whiteSpace=wrap;html=1;aspect=fixed;strokeColor=#82b366;fontFamily=Times New Roman;fontSize=8.5;fillColor=#d5e8d4;opacity=40;" vertex="1" parent="1">
          <mxGeometry x="569.5" y="190" width="60" height="60" as="geometry" />
        </mxCell>
        <mxCell id="Z4D7vQt7FPXIayYJrjbk-9" value="" style="rounded=0;whiteSpace=wrap;html=1;fillStyle=auto;strokeColor=#000000;fillColor=none;gradientColor=default;dashed=1;strokeWidth=3;fontFamily=Times New Roman;" vertex="1" parent="1">
          <mxGeometry x="158" y="140" width="325" height="150" as="geometry" />
        </mxCell>
        <mxCell id="Z4D7vQt7FPXIayYJrjbk-11" value="" style="group;fontFamily=Times New Roman;" vertex="1" connectable="0" parent="1">
          <mxGeometry x="637.5" y="199" width="60" height="40" as="geometry" />
        </mxCell>
        <mxCell id="Z4D7vQt7FPXIayYJrjbk-12" value="" style="shape=waypoint;sketch=0;fillStyle=solid;size=6;pointerEvents=1;points=[];fillColor=none;resizable=0;rotatable=0;perimeter=centerPerimeter;snapToPoint=1;strokeColor=#000000;strokeWidth=1;fontFamily=Times New Roman;" vertex="1" parent="Z4D7vQt7FPXIayYJrjbk-11">
          <mxGeometry width="40" height="40" as="geometry" />
        </mxCell>
        <mxCell id="Z4D7vQt7FPXIayYJrjbk-13" value="" style="shape=waypoint;sketch=0;fillStyle=solid;size=6;pointerEvents=1;points=[];fillColor=none;resizable=0;rotatable=0;perimeter=centerPerimeter;snapToPoint=1;strokeColor=#000000;strokeWidth=1;fontFamily=Times New Roman;" vertex="1" parent="Z4D7vQt7FPXIayYJrjbk-11">
          <mxGeometry x="10" width="40" height="40" as="geometry" />
        </mxCell>
        <mxCell id="Z4D7vQt7FPXIayYJrjbk-14" value="" style="shape=waypoint;sketch=0;fillStyle=solid;size=6;pointerEvents=1;points=[];fillColor=none;resizable=0;rotatable=0;perimeter=centerPerimeter;snapToPoint=1;strokeColor=#000000;strokeWidth=1;fontFamily=Times New Roman;" vertex="1" parent="Z4D7vQt7FPXIayYJrjbk-11">
          <mxGeometry x="20" width="40" height="40" as="geometry" />
        </mxCell>
        <mxCell id="Z4D7vQt7FPXIayYJrjbk-15" value="&lt;font size=&quot;1&quot;&gt;&lt;b style=&quot;font-size: 20px;&quot;&gt;SPD原始矩阵&lt;/b&gt;&lt;/font&gt;" style="text;html=1;strokeColor=none;fillColor=none;align=center;verticalAlign=middle;whiteSpace=wrap;rounded=0;fontFamily=Times New Roman;" vertex="1" parent="1">
          <mxGeometry x="599.5" y="258" width="127.5" height="30" as="geometry" />
        </mxCell>
        <mxCell id="Z4D7vQt7FPXIayYJrjbk-17" value="" style="rounded=0;whiteSpace=wrap;html=1;fontFamily=Times New Roman;" vertex="1" parent="1">
          <mxGeometry x="165.5" y="172" width="310" height="90" as="geometry" />
        </mxCell>
        <mxCell id="Z4D7vQt7FPXIayYJrjbk-18" value="" style="curved=1;endArrow=none;html=1;rounded=0;endFill=0;entryX=1;entryY=0.5;entryDx=0;entryDy=0;strokeColor=#CCCCCC;fontFamily=Times New Roman;" edge="1" parent="1" target="Z4D7vQt7FPXIayYJrjbk-17">
          <mxGeometry width="50" height="50" relative="1" as="geometry">
            <mxPoint x="165.5" y="232" as="sourcePoint" />
            <mxPoint x="525.5" y="222" as="targetPoint" />
            <Array as="points">
              <mxPoint x="185.5" y="222" />
              <mxPoint x="205.5" y="212" />
              <mxPoint x="235.5" y="172" />
              <mxPoint x="275.5" y="217" />
              <mxPoint x="305.5" y="212" />
              <mxPoint x="375.5" y="222" />
              <mxPoint x="455.5" y="192" />
            </Array>
          </mxGeometry>
        </mxCell>
        <mxCell id="Z4D7vQt7FPXIayYJrjbk-19" value="" style="curved=1;endArrow=none;html=1;rounded=0;endFill=0;entryX=1;entryY=0.5;entryDx=0;entryDy=0;strokeColor=#CCCCCC;fontFamily=Times New Roman;" edge="1" parent="1">
          <mxGeometry width="50" height="50" relative="1" as="geometry">
            <mxPoint x="165.5" y="244.5" as="sourcePoint" />
            <mxPoint x="475.5" y="229.5" as="targetPoint" />
            <Array as="points">
              <mxPoint x="185.5" y="219.5" />
              <mxPoint x="195.5" y="189.5" />
              <mxPoint x="235.5" y="184.5" />
              <mxPoint x="245.5" y="239.5" />
              <mxPoint x="275.5" y="229.5" />
              <mxPoint x="315.5" y="249.5" />
              <mxPoint x="355.5" y="202" />
              <mxPoint x="385.5" y="212" />
              <mxPoint x="415.5" y="232" />
              <mxPoint x="455.5" y="204.5" />
            </Array>
          </mxGeometry>
        </mxCell>
        <mxCell id="Z4D7vQt7FPXIayYJrjbk-20" value="" style="curved=1;endArrow=none;html=1;rounded=0;endFill=0;entryX=1;entryY=0.5;entryDx=0;entryDy=0;strokeColor=#CCCCCC;fontFamily=Times New Roman;" edge="1" parent="1">
          <mxGeometry width="50" height="50" relative="1" as="geometry">
            <mxPoint x="165.5" y="257" as="sourcePoint" />
            <mxPoint x="475.5" y="242" as="targetPoint" />
            <Array as="points">
              <mxPoint x="185.5" y="242" />
              <mxPoint x="205.5" y="242" />
              <mxPoint x="195.5" y="242" />
              <mxPoint x="215.5" y="242" />
              <mxPoint x="235.5" y="197" />
              <mxPoint x="245.5" y="252" />
              <mxPoint x="295.5" y="217" />
              <mxPoint x="315.5" y="262" />
              <mxPoint x="355.5" y="214.5" />
              <mxPoint x="375.5" y="252" />
              <mxPoint x="385.5" y="257" />
              <mxPoint x="405.5" y="252" />
              <mxPoint x="415.5" y="244.5" />
              <mxPoint x="455.5" y="172" />
            </Array>
          </mxGeometry>
        </mxCell>
        <mxCell id="Z4D7vQt7FPXIayYJrjbk-21" value="" style="rounded=0;whiteSpace=wrap;html=1;fillColor=none;strokeColor=#6c8ebf;strokeWidth=2;fontFamily=Times New Roman;" vertex="1" parent="1">
          <mxGeometry x="198.5" y="172" width="178.5" height="90" as="geometry" />
        </mxCell>
        <mxCell id="Z4D7vQt7FPXIayYJrjbk-24" value="&lt;font style=&quot;font-size: 15px;&quot;&gt;&lt;b&gt;t 时刻&lt;br&gt;&lt;/b&gt;&lt;/font&gt;" style="text;html=1;strokeColor=none;fillColor=none;align=center;verticalAlign=middle;whiteSpace=wrap;rounded=0;fontFamily=Times New Roman;" vertex="1" parent="1">
          <mxGeometry x="375" y="140" width="60" height="30" as="geometry" />
        </mxCell>
        <mxCell id="Z4D7vQt7FPXIayYJrjbk-25" value="&lt;font size=&quot;1&quot;&gt;&lt;b style=&quot;font-size: 15px;&quot;&gt;t&lt;/b&gt;&lt;/font&gt;" style="text;html=1;strokeColor=none;fillColor=none;align=center;verticalAlign=middle;whiteSpace=wrap;rounded=0;fontFamily=Times New Roman;" vertex="1" parent="1">
          <mxGeometry x="697.5" y="138" width="60" height="30" as="geometry" />
        </mxCell>
        <mxCell id="Z4D7vQt7FPXIayYJrjbk-26" value="&lt;font size=&quot;1&quot;&gt;&lt;b style=&quot;font-size: 15px;&quot;&gt;t-h&lt;br&gt;&lt;/b&gt;&lt;/font&gt;" style="text;html=1;strokeColor=none;fillColor=none;align=center;verticalAlign=middle;whiteSpace=wrap;rounded=0;fontFamily=Times New Roman;" vertex="1" parent="1">
          <mxGeometry x="583" y="141" width="60" height="30" as="geometry" />
        </mxCell>
        <mxCell id="Z4D7vQt7FPXIayYJrjbk-29" value="&lt;font style=&quot;font-size: 15px;&quot; color=&quot;#6c8ebf&quot;&gt;&lt;b&gt;w&lt;/b&gt;&lt;/font&gt;" style="text;html=1;strokeColor=none;fillColor=none;align=center;verticalAlign=middle;whiteSpace=wrap;rounded=0;fontFamily=Times New Roman;" vertex="1" parent="1">
          <mxGeometry x="271.25" y="141" width="60" height="30" as="geometry" />
        </mxCell>
        <mxCell id="Z4D7vQt7FPXIayYJrjbk-30" value="" style="endArrow=classic;html=1;rounded=0;fontFamily=Times New Roman;" edge="1" parent="1">
          <mxGeometry width="50" height="50" relative="1" as="geometry">
            <mxPoint x="377" y="150" as="sourcePoint" />
            <mxPoint x="377" y="170" as="targetPoint" />
          </mxGeometry>
        </mxCell>
        <mxCell id="Z4D7vQt7FPXIayYJrjbk-31" value="&lt;font size=&quot;1&quot;&gt;&lt;b style=&quot;font-size: 20px;&quot;&gt;原始数据&lt;/b&gt;&lt;/font&gt;" style="text;html=1;strokeColor=none;fillColor=none;align=center;verticalAlign=middle;whiteSpace=wrap;rounded=0;fontFamily=Times New Roman;" vertex="1" parent="1">
          <mxGeometry x="260" y="262" width="111.5" height="30" as="geometry" />
        </mxCell>
        <mxCell id="Z4D7vQt7FPXIayYJrjbk-34" value="" style="rounded=0;whiteSpace=wrap;html=1;fillStyle=auto;strokeColor=#000000;fillColor=none;gradientColor=default;dashed=1;strokeWidth=3;fontFamily=Times New Roman;" vertex="1" parent="1">
          <mxGeometry x="84.25" y="806" width="325" height="160" as="geometry" />
        </mxCell>
        <mxCell id="Z4D7vQt7FPXIayYJrjbk-35" value="" style="rounded=0;whiteSpace=wrap;html=1;fontFamily=Times New Roman;" vertex="1" parent="1">
          <mxGeometry x="91.75" y="838" width="310" height="90" as="geometry" />
        </mxCell>
        <mxCell id="Z4D7vQt7FPXIayYJrjbk-36" value="" style="curved=1;endArrow=none;html=1;rounded=0;endFill=0;entryX=1;entryY=0.5;entryDx=0;entryDy=0;strokeColor=#CCCCCC;fontFamily=Times New Roman;" edge="1" parent="1" target="Z4D7vQt7FPXIayYJrjbk-35">
          <mxGeometry width="50" height="50" relative="1" as="geometry">
            <mxPoint x="91.75" y="898" as="sourcePoint" />
            <mxPoint x="451.75" y="888" as="targetPoint" />
            <Array as="points">
              <mxPoint x="111.75" y="888" />
              <mxPoint x="131.75" y="878" />
              <mxPoint x="161.75" y="838" />
              <mxPoint x="201.75" y="883" />
              <mxPoint x="231.75" y="878" />
              <mxPoint x="301.75" y="888" />
              <mxPoint x="381.75" y="858" />
            </Array>
          </mxGeometry>
        </mxCell>
        <mxCell id="Z4D7vQt7FPXIayYJrjbk-37" value="" style="curved=1;endArrow=none;html=1;rounded=0;endFill=0;entryX=1;entryY=0.5;entryDx=0;entryDy=0;strokeColor=#CCCCCC;fontFamily=Times New Roman;" edge="1" parent="1">
          <mxGeometry width="50" height="50" relative="1" as="geometry">
            <mxPoint x="91.75" y="910.5" as="sourcePoint" />
            <mxPoint x="401.75" y="895.5" as="targetPoint" />
            <Array as="points">
              <mxPoint x="111.75" y="885.5" />
              <mxPoint x="121.75" y="855.5" />
              <mxPoint x="161.75" y="850.5" />
              <mxPoint x="171.75" y="905.5" />
              <mxPoint x="201.75" y="895.5" />
              <mxPoint x="241.75" y="915.5" />
              <mxPoint x="281.75" y="868" />
              <mxPoint x="311.75" y="878" />
              <mxPoint x="341.75" y="898" />
              <mxPoint x="381.75" y="870.5" />
            </Array>
          </mxGeometry>
        </mxCell>
        <mxCell id="Z4D7vQt7FPXIayYJrjbk-38" value="" style="curved=1;endArrow=none;html=1;rounded=0;endFill=0;entryX=1;entryY=0.5;entryDx=0;entryDy=0;strokeColor=#CCCCCC;fontFamily=Times New Roman;" edge="1" parent="1">
          <mxGeometry width="50" height="50" relative="1" as="geometry">
            <mxPoint x="91.75" y="923" as="sourcePoint" />
            <mxPoint x="401.75" y="908" as="targetPoint" />
            <Array as="points">
              <mxPoint x="111.75" y="908" />
              <mxPoint x="131.75" y="908" />
              <mxPoint x="121.75" y="908" />
              <mxPoint x="141.75" y="908" />
              <mxPoint x="161.75" y="863" />
              <mxPoint x="171.75" y="918" />
              <mxPoint x="221.75" y="883" />
              <mxPoint x="241.75" y="928" />
              <mxPoint x="281.75" y="880.5" />
              <mxPoint x="301.75" y="918" />
              <mxPoint x="311.75" y="923" />
              <mxPoint x="331.75" y="918" />
              <mxPoint x="341.75" y="910.5" />
              <mxPoint x="381.75" y="838" />
            </Array>
          </mxGeometry>
        </mxCell>
        <mxCell id="Z4D7vQt7FPXIayYJrjbk-39" value="" style="rounded=0;whiteSpace=wrap;html=1;fillColor=none;strokeColor=#6c8ebf;strokeWidth=2;fontFamily=Times New Roman;" vertex="1" parent="1">
          <mxGeometry x="124.75" y="838" width="178.5" height="90" as="geometry" />
        </mxCell>
        <mxCell id="Z4D7vQt7FPXIayYJrjbk-40" value="&lt;font style=&quot;font-size: 15px;&quot;&gt;&lt;b&gt;t 时刻&lt;br&gt;&lt;/b&gt;&lt;/font&gt;" style="text;html=1;strokeColor=none;fillColor=none;align=center;verticalAlign=middle;whiteSpace=wrap;rounded=0;fontFamily=Times New Roman;" vertex="1" parent="1">
          <mxGeometry x="301.25" y="806" width="60" height="30" as="geometry" />
        </mxCell>
        <mxCell id="Z4D7vQt7FPXIayYJrjbk-41" value="&lt;font style=&quot;font-size: 15px;&quot; color=&quot;#6c8ebf&quot;&gt;&lt;b&gt;w&lt;/b&gt;&lt;/font&gt;" style="text;html=1;strokeColor=none;fillColor=none;align=center;verticalAlign=middle;whiteSpace=wrap;rounded=0;fontFamily=Times New Roman;" vertex="1" parent="1">
          <mxGeometry x="197.5" y="807" width="60" height="30" as="geometry" />
        </mxCell>
        <mxCell id="Z4D7vQt7FPXIayYJrjbk-42" value="" style="endArrow=classic;html=1;rounded=0;fontFamily=Times New Roman;" edge="1" parent="1">
          <mxGeometry width="50" height="50" relative="1" as="geometry">
            <mxPoint x="303.25" y="816" as="sourcePoint" />
            <mxPoint x="303.25" y="836" as="targetPoint" />
          </mxGeometry>
        </mxCell>
        <mxCell id="Z4D7vQt7FPXIayYJrjbk-43" value="&lt;font size=&quot;1&quot;&gt;&lt;b style=&quot;font-size: 16px;&quot;&gt;原始数据&lt;/b&gt;&lt;/font&gt;" style="text;html=1;strokeColor=none;fillColor=none;align=center;verticalAlign=middle;whiteSpace=wrap;rounded=0;fontFamily=Times New Roman;" vertex="1" parent="1">
          <mxGeometry x="186" y="933" width="111.5" height="30" as="geometry" />
        </mxCell>
        <mxCell id="B7qhXa-v-29hhFYy1VIY-3" value="&lt;b&gt;&lt;font style=&quot;font-size: 20px;&quot; color=&quot;#3333ff&quot;&gt;(a)&lt;/font&gt;&lt;/b&gt;" style="text;html=1;strokeColor=none;fillColor=none;align=center;verticalAlign=middle;whiteSpace=wrap;rounded=0;fontFamily=Times New Roman;" vertex="1" parent="1">
          <mxGeometry x="54" y="419" width="60" height="30" as="geometry" />
        </mxCell>
        <mxCell id="B7qhXa-v-29hhFYy1VIY-4" value="&lt;font style=&quot;font-size: 20px;&quot;&gt;&lt;b&gt;维度表征模块&lt;br&gt;&lt;/b&gt;&lt;/font&gt;" style="text;html=1;strokeColor=none;fillColor=none;align=center;verticalAlign=middle;whiteSpace=wrap;rounded=0;fontFamily=Times New Roman;" vertex="1" parent="1">
          <mxGeometry x="82.25" y="421" width="169" height="30" as="geometry" />
        </mxCell>
        <mxCell id="B7qhXa-v-29hhFYy1VIY-5" value="" style="shape=flexArrow;endArrow=classic;html=1;rounded=0;fillColor=#3333FF;strokeColor=none;endSize=6;startSize=6;fontFamily=Times New Roman;" edge="1" parent="1">
          <mxGeometry width="50" height="50" relative="1" as="geometry">
            <mxPoint x="247" y="790" as="sourcePoint" />
            <mxPoint x="247.17999999999995" y="724" as="targetPoint" />
          </mxGeometry>
        </mxCell>
        <mxCell id="omIhpatOHkibPJl4GQFj-26" value="" style="group" vertex="1" connectable="0" parent="1">
          <mxGeometry x="151.75" y="495" width="180" height="166" as="geometry" />
        </mxCell>
        <mxCell id="omIhpatOHkibPJl4GQFj-22" value="" style="rounded=0;whiteSpace=wrap;html=1;fillColor=#ffcc99;strokeColor=#36393d;" vertex="1" parent="omIhpatOHkibPJl4GQFj-26">
          <mxGeometry width="180" height="33" as="geometry" />
        </mxCell>
        <mxCell id="omIhpatOHkibPJl4GQFj-23" value="" style="rounded=0;whiteSpace=wrap;html=1;fillColor=#cce5ff;strokeColor=#36393d;" vertex="1" parent="omIhpatOHkibPJl4GQFj-26">
          <mxGeometry y="33" width="180" height="33" as="geometry" />
        </mxCell>
        <mxCell id="omIhpatOHkibPJl4GQFj-24" value="&lt;div style=&quot;font-size: 16px;&quot;&gt;&lt;font style=&quot;font-size: 16px;&quot;&gt;&lt;b&gt;·&lt;/b&gt;&lt;/font&gt;&lt;/div&gt;&lt;div style=&quot;font-size: 16px;&quot;&gt;&lt;font style=&quot;font-size: 16px;&quot;&gt;&lt;b&gt;·&lt;/b&gt;&lt;/font&gt;&lt;/div&gt;&lt;div style=&quot;font-size: 16px;&quot;&gt;&lt;font style=&quot;font-size: 16px;&quot;&gt;&lt;b&gt;·&lt;/b&gt;&lt;/font&gt;&lt;/div&gt;" style="rounded=0;whiteSpace=wrap;html=1;" vertex="1" parent="omIhpatOHkibPJl4GQFj-26">
          <mxGeometry y="66" width="180" height="67" as="geometry" />
        </mxCell>
        <mxCell id="omIhpatOHkibPJl4GQFj-25" value="" style="rounded=0;whiteSpace=wrap;html=1;fillColor=#cdeb8b;strokeColor=#36393d;" vertex="1" parent="omIhpatOHkibPJl4GQFj-26">
          <mxGeometry y="133" width="180" height="33" as="geometry" />
        </mxCell>
        <mxCell id="wrK92mJolBuY9St9RpsB-1" value="&lt;font size=&quot;1&quot;&gt;&lt;b style=&quot;font-size: 16px;&quot;&gt;r&lt;sub&gt;i&lt;/sub&gt;&lt;/b&gt;&lt;/font&gt;" style="rounded=1;whiteSpace=wrap;html=1;dashed=1;fillStyle=dots;strokeColor=none;fillColor=none;" vertex="1" parent="1">
          <mxGeometry x="91.75" y="567" width="60" height="20" as="geometry" />
        </mxCell>
        <mxCell id="wrK92mJolBuY9St9RpsB-3" value="&lt;font style=&quot;font-size: 16px;&quot;&gt;&lt;b&gt;维度嵌入&lt;br&gt;&lt;/b&gt;&lt;/font&gt;" style="text;html=1;strokeColor=none;fillColor=none;align=center;verticalAlign=middle;whiteSpace=wrap;rounded=0;fontFamily=Times New Roman;" vertex="1" parent="1">
          <mxGeometry x="196" y="674" width="111.5" height="30" as="geometry" />
        </mxCell>
        <mxCell id="EEJ5MkbSI87N3omZMyAo-1" value="&lt;font face=&quot;Verdana&quot; size=&quot;1&quot;&gt;&lt;span style=&quot;font-size: 16px;&quot;&gt;~N(&lt;/span&gt;&lt;/font&gt;&lt;span style=&quot;font-size:12.0pt;font-family:宋体;&lt;br/&gt;mso-bidi-font-family:&amp;quot;Times New Roman&amp;quot;;mso-font-kerning:1.0pt;mso-ansi-language:&lt;br/&gt;EN-US;mso-fareast-language:ZH-CN;mso-bidi-language:AR-SA&quot;&gt;μ,σ&lt;/span&gt;&lt;font face=&quot;Verdana&quot; size=&quot;1&quot;&gt;&lt;span style=&quot;font-size: 16px;&quot;&gt;)&lt;/span&gt;&lt;/font&gt;" style="rounded=1;whiteSpace=wrap;html=1;dashed=1;fillStyle=dots;strokeColor=none;fillColor=none;" vertex="1" parent="1">
          <mxGeometry x="341.75" y="567" width="60" height="20" as="geometry" />
        </mxCell>
        <mxCell id="EEJ5MkbSI87N3omZMyAo-2" value="&lt;font color=&quot;#4d9900&quot;&gt;&lt;b&gt;&lt;font style=&quot;font-size: 20px;&quot;&gt;(b)&lt;/font&gt;&lt;/b&gt;&lt;/font&gt;" style="text;html=1;strokeColor=none;fillColor=none;align=center;verticalAlign=middle;whiteSpace=wrap;rounded=0;fontFamily=Times New Roman;" vertex="1" parent="1">
          <mxGeometry x="427" y="421" width="60" height="30" as="geometry" />
        </mxCell>
        <mxCell id="EEJ5MkbSI87N3omZMyAo-3" value="&lt;font style=&quot;font-size: 20px;&quot;&gt;&lt;b&gt;基于概率的生成图神经网络模块&lt;br&gt;&lt;/b&gt;&lt;/font&gt;" style="text;html=1;strokeColor=none;fillColor=none;align=center;verticalAlign=middle;whiteSpace=wrap;rounded=0;fontFamily=Times New Roman;" vertex="1" parent="1">
          <mxGeometry x="471.25" y="416.5" width="283.5" height="47" as="geometry" />
        </mxCell>
        <mxCell id="EEJ5MkbSI87N3omZMyAo-6" value="" style="rounded=0;whiteSpace=wrap;html=1;fillStyle=auto;strokeColor=#FFB570;fillColor=none;gradientColor=default;strokeWidth=5;fontFamily=Times New Roman;perimeterSpacing=24;dashed=1;" vertex="1" parent="1">
          <mxGeometry x="437.75" y="742" width="602.25" height="258" as="geometry" />
        </mxCell>
        <mxCell id="EEJ5MkbSI87N3omZMyAo-7" value="" style="rounded=0;whiteSpace=wrap;html=1;fillStyle=auto;strokeColor=#CC0066;fillColor=none;gradientColor=default;strokeWidth=5;fontFamily=Times New Roman;dashed=1;" vertex="1" parent="1">
          <mxGeometry x="1040" y="414" width="250" height="586" as="geometry" />
        </mxCell>
        <mxCell id="iGKBdz3vK_Ewrd-PWQH9-1" value="&lt;font size=&quot;1&quot;&gt;&lt;b&gt;&lt;font style=&quot;font-size: 14px;&quot;&gt;LSTM&lt;/font&gt;&lt;/b&gt;&lt;/font&gt;" style="rounded=1;whiteSpace=wrap;html=1;strokeColor=#b85450;fillColor=#f8cecc;opacity=80;" vertex="1" parent="1">
          <mxGeometry x="486.5" y="471" width="229.5" height="29" as="geometry" />
        </mxCell>
        <mxCell id="iGKBdz3vK_Ewrd-PWQH9-42" value="" style="group" vertex="1" connectable="0" parent="1">
          <mxGeometry x="488" y="550" width="278.25" height="160" as="geometry" />
        </mxCell>
        <mxCell id="omIhpatOHkibPJl4GQFj-20" value="" style="group" vertex="1" connectable="0" parent="iGKBdz3vK_Ewrd-PWQH9-42">
          <mxGeometry x="28" width="250.25" height="160" as="geometry" />
        </mxCell>
        <mxCell id="iGKBdz3vK_Ewrd-PWQH9-21" value="" style="group" vertex="1" connectable="0" parent="omIhpatOHkibPJl4GQFj-20">
          <mxGeometry x="29.5" y="-20" width="220.75" height="130" as="geometry" />
        </mxCell>
        <mxCell id="iGKBdz3vK_Ewrd-PWQH9-22" value="" style="rounded=1;whiteSpace=wrap;html=1;strokeColor=#6c8ebf;fillColor=#dae8fc;rotation=90;" vertex="1" parent="iGKBdz3vK_Ewrd-PWQH9-21">
          <mxGeometry x="18.5" y="-14" width="130" height="160" as="geometry" />
        </mxCell>
        <mxCell id="iGKBdz3vK_Ewrd-PWQH9-23" value="" style="ellipse;whiteSpace=wrap;html=1;aspect=fixed;fillColor=#dae8fc;strokeColor=#6c8ebf;" vertex="1" parent="iGKBdz3vK_Ewrd-PWQH9-21">
          <mxGeometry x="38.5" y="6" width="20" height="20" as="geometry" />
        </mxCell>
        <mxCell id="iGKBdz3vK_Ewrd-PWQH9-24" value="" style="ellipse;whiteSpace=wrap;html=1;aspect=fixed;fillColor=#dae8fc;strokeColor=#6c8ebf;" vertex="1" parent="iGKBdz3vK_Ewrd-PWQH9-21">
          <mxGeometry x="73.5" y="16" width="20" height="20" as="geometry" />
        </mxCell>
        <mxCell id="iGKBdz3vK_Ewrd-PWQH9-25" value="" style="ellipse;whiteSpace=wrap;html=1;aspect=fixed;fillColor=#dae8fc;strokeColor=#6c8ebf;" vertex="1" parent="iGKBdz3vK_Ewrd-PWQH9-21">
          <mxGeometry x="23.5" y="61" width="20" height="20" as="geometry" />
        </mxCell>
        <mxCell id="iGKBdz3vK_Ewrd-PWQH9-26" value="" style="ellipse;whiteSpace=wrap;html=1;aspect=fixed;fillColor=#dae8fc;strokeColor=#6c8ebf;" vertex="1" parent="iGKBdz3vK_Ewrd-PWQH9-21">
          <mxGeometry x="68.5" y="71" width="20" height="20" as="geometry" />
        </mxCell>
        <mxCell id="iGKBdz3vK_Ewrd-PWQH9-27" value="" style="ellipse;whiteSpace=wrap;html=1;aspect=fixed;fillColor=#dae8fc;strokeColor=#6c8ebf;" vertex="1" parent="iGKBdz3vK_Ewrd-PWQH9-21">
          <mxGeometry x="38.5" y="106" width="20" height="20" as="geometry" />
        </mxCell>
        <mxCell id="iGKBdz3vK_Ewrd-PWQH9-28" value="" style="endArrow=none;html=1;rounded=0;exitX=1;exitY=0.5;exitDx=0;exitDy=0;entryX=0.071;entryY=0.315;entryDx=0;entryDy=0;entryPerimeter=0;fillColor=#dae8fc;strokeColor=#6c8ebf;" edge="1" parent="iGKBdz3vK_Ewrd-PWQH9-21" source="iGKBdz3vK_Ewrd-PWQH9-23" target="iGKBdz3vK_Ewrd-PWQH9-24">
          <mxGeometry width="50" height="50" relative="1" as="geometry">
            <mxPoint x="423.5" y="206" as="sourcePoint" />
            <mxPoint x="103.5" y="36" as="targetPoint" />
          </mxGeometry>
        </mxCell>
        <mxCell id="iGKBdz3vK_Ewrd-PWQH9-29" value="" style="endArrow=none;html=1;rounded=0;exitX=1;exitY=0;exitDx=0;exitDy=0;entryX=0;entryY=1;entryDx=0;entryDy=0;fillColor=#dae8fc;strokeColor=#6c8ebf;" edge="1" parent="iGKBdz3vK_Ewrd-PWQH9-21" source="iGKBdz3vK_Ewrd-PWQH9-25" target="iGKBdz3vK_Ewrd-PWQH9-24">
          <mxGeometry width="50" height="50" relative="1" as="geometry">
            <mxPoint x="143.5" y="61" as="sourcePoint" />
            <mxPoint x="193.5" y="11" as="targetPoint" />
          </mxGeometry>
        </mxCell>
        <mxCell id="iGKBdz3vK_Ewrd-PWQH9-30" value="" style="endArrow=none;html=1;rounded=0;exitX=0.93;exitY=0.75;exitDx=0;exitDy=0;entryX=0.09;entryY=0.21;entryDx=0;entryDy=0;exitPerimeter=0;entryPerimeter=0;fillColor=#dae8fc;strokeColor=#6c8ebf;" edge="1" parent="iGKBdz3vK_Ewrd-PWQH9-21" source="iGKBdz3vK_Ewrd-PWQH9-25" target="iGKBdz3vK_Ewrd-PWQH9-26">
          <mxGeometry width="50" height="50" relative="1" as="geometry">
            <mxPoint x="90.5" y="69" as="sourcePoint" />
            <mxPoint x="106.5" y="53" as="targetPoint" />
          </mxGeometry>
        </mxCell>
        <mxCell id="iGKBdz3vK_Ewrd-PWQH9-31" value="" style="endArrow=none;html=1;rounded=0;exitX=1;exitY=0.5;exitDx=0;exitDy=0;entryX=0.119;entryY=0.839;entryDx=0;entryDy=0;entryPerimeter=0;fillColor=#dae8fc;strokeColor=#6c8ebf;" edge="1" parent="iGKBdz3vK_Ewrd-PWQH9-21" source="iGKBdz3vK_Ewrd-PWQH9-27" target="iGKBdz3vK_Ewrd-PWQH9-26">
          <mxGeometry width="50" height="50" relative="1" as="geometry">
            <mxPoint x="113.5" y="111" as="sourcePoint" />
            <mxPoint x="163.5" y="61" as="targetPoint" />
          </mxGeometry>
        </mxCell>
        <mxCell id="iGKBdz3vK_Ewrd-PWQH9-32" value="" style="endArrow=none;html=1;rounded=0;entryX=0.5;entryY=0.967;entryDx=0;entryDy=0;entryPerimeter=0;exitX=0.578;exitY=0.017;exitDx=0;exitDy=0;exitPerimeter=0;fillColor=#dae8fc;strokeColor=#6c8ebf;" edge="1" parent="iGKBdz3vK_Ewrd-PWQH9-21" source="iGKBdz3vK_Ewrd-PWQH9-26" target="iGKBdz3vK_Ewrd-PWQH9-24">
          <mxGeometry width="50" height="50" relative="1" as="geometry">
            <mxPoint x="63.5" y="136" as="sourcePoint" />
            <mxPoint x="113.5" y="86" as="targetPoint" />
          </mxGeometry>
        </mxCell>
        <mxCell id="iGKBdz3vK_Ewrd-PWQH9-33" value="" style="ellipse;whiteSpace=wrap;html=1;aspect=fixed;fillColor=#dae8fc;strokeColor=#6c8ebf;" vertex="1" parent="iGKBdz3vK_Ewrd-PWQH9-21">
          <mxGeometry x="103.5" y="106" width="20" height="20" as="geometry" />
        </mxCell>
        <mxCell id="iGKBdz3vK_Ewrd-PWQH9-34" value="" style="endArrow=none;html=1;rounded=0;exitX=0;exitY=0;exitDx=0;exitDy=0;entryX=0.869;entryY=0.835;entryDx=0;entryDy=0;entryPerimeter=0;fillColor=#dae8fc;strokeColor=#6c8ebf;" edge="1" parent="iGKBdz3vK_Ewrd-PWQH9-21" source="iGKBdz3vK_Ewrd-PWQH9-33" target="iGKBdz3vK_Ewrd-PWQH9-26">
          <mxGeometry width="50" height="50" relative="1" as="geometry">
            <mxPoint x="68.5" y="126" as="sourcePoint" />
            <mxPoint x="80.5" y="98" as="targetPoint" />
          </mxGeometry>
        </mxCell>
        <mxCell id="iGKBdz3vK_Ewrd-PWQH9-35" value="" style="ellipse;whiteSpace=wrap;html=1;aspect=fixed;fillColor=#dae8fc;strokeColor=#6c8ebf;" vertex="1" parent="iGKBdz3vK_Ewrd-PWQH9-21">
          <mxGeometry x="113.5" y="6" width="20" height="20" as="geometry" />
        </mxCell>
        <mxCell id="iGKBdz3vK_Ewrd-PWQH9-36" value="" style="endArrow=none;html=1;rounded=0;exitX=1;exitY=0;exitDx=0;exitDy=0;entryX=0.5;entryY=1;entryDx=0;entryDy=0;fillColor=#dae8fc;strokeColor=#6c8ebf;" edge="1" parent="iGKBdz3vK_Ewrd-PWQH9-21" source="iGKBdz3vK_Ewrd-PWQH9-26" target="iGKBdz3vK_Ewrd-PWQH9-35">
          <mxGeometry width="50" height="50" relative="1" as="geometry">
            <mxPoint x="50.5" y="74" as="sourcePoint" />
            <mxPoint x="86.5" y="43" as="targetPoint" />
          </mxGeometry>
        </mxCell>
        <mxCell id="iGKBdz3vK_Ewrd-PWQH9-37" value="" style="endArrow=none;html=1;rounded=0;exitX=0.5;exitY=0;exitDx=0;exitDy=0;entryX=0;entryY=1;entryDx=0;entryDy=0;fillColor=#dae8fc;strokeColor=#6c8ebf;" edge="1" parent="iGKBdz3vK_Ewrd-PWQH9-21" source="iGKBdz3vK_Ewrd-PWQH9-25" target="iGKBdz3vK_Ewrd-PWQH9-23">
          <mxGeometry width="50" height="50" relative="1" as="geometry">
            <mxPoint x="95.5" y="84" as="sourcePoint" />
            <mxPoint x="133.5" y="36" as="targetPoint" />
          </mxGeometry>
        </mxCell>
        <mxCell id="iGKBdz3vK_Ewrd-PWQH9-39" value="&lt;font style=&quot;font-size: 11px;&quot;&gt;&lt;b style=&quot;font-size: 10px;&quot;&gt;&lt;font style=&quot;font-size: 10px;&quot;&gt;GAT&lt;br&gt;&lt;/font&gt;&lt;/b&gt;&lt;/font&gt;" style="text;html=1;strokeColor=none;fillColor=none;align=center;verticalAlign=middle;whiteSpace=wrap;rounded=0;fontFamily=Times New Roman;" vertex="1" parent="iGKBdz3vK_Ewrd-PWQH9-21">
          <mxGeometry x="-43.75" y="-5" width="132.25" height="30" as="geometry" />
        </mxCell>
        <mxCell id="iGKBdz3vK_Ewrd-PWQH9-41" value="&lt;font style=&quot;font-size: 10px;&quot;&gt;&lt;b&gt;t时刻&lt;br&gt;&lt;/b&gt;&lt;/font&gt;" style="text;html=1;strokeColor=none;fillColor=none;align=center;verticalAlign=middle;whiteSpace=wrap;rounded=0;fontFamily=Times New Roman;" vertex="1" parent="iGKBdz3vK_Ewrd-PWQH9-21">
          <mxGeometry x="79.5" y="98" width="132.25" height="30" as="geometry" />
        </mxCell>
        <mxCell id="omIhpatOHkibPJl4GQFj-1" value="" style="rounded=1;whiteSpace=wrap;html=1;strokeColor=#82b366;fillColor=#d5e8d4;rotation=90;" vertex="1" parent="omIhpatOHkibPJl4GQFj-20">
          <mxGeometry x="15" y="-14" width="130" height="160" as="geometry" />
        </mxCell>
        <mxCell id="omIhpatOHkibPJl4GQFj-5" value="" style="ellipse;whiteSpace=wrap;html=1;aspect=fixed;fillColor=#dae8fc;strokeColor=#6c8ebf;" vertex="1" parent="omIhpatOHkibPJl4GQFj-20">
          <mxGeometry x="23.5" y="61" width="20" height="20" as="geometry" />
        </mxCell>
        <mxCell id="omIhpatOHkibPJl4GQFj-6" value="" style="ellipse;whiteSpace=wrap;html=1;aspect=fixed;fillColor=#dae8fc;strokeColor=#6c8ebf;" vertex="1" parent="omIhpatOHkibPJl4GQFj-20">
          <mxGeometry x="68.5" y="71" width="20" height="20" as="geometry" />
        </mxCell>
        <mxCell id="omIhpatOHkibPJl4GQFj-7" value="" style="ellipse;whiteSpace=wrap;html=1;aspect=fixed;fillColor=#dae8fc;strokeColor=#6c8ebf;" vertex="1" parent="omIhpatOHkibPJl4GQFj-20">
          <mxGeometry x="38.5" y="106" width="20" height="20" as="geometry" />
        </mxCell>
        <mxCell id="omIhpatOHkibPJl4GQFj-10" value="" style="endArrow=none;html=1;rounded=0;exitX=0.93;exitY=0.75;exitDx=0;exitDy=0;entryX=0.09;entryY=0.21;entryDx=0;entryDy=0;exitPerimeter=0;entryPerimeter=0;fillColor=#dae8fc;strokeColor=#6c8ebf;" edge="1" parent="omIhpatOHkibPJl4GQFj-20" source="omIhpatOHkibPJl4GQFj-5" target="omIhpatOHkibPJl4GQFj-6">
          <mxGeometry width="50" height="50" relative="1" as="geometry">
            <mxPoint x="90.5" y="69" as="sourcePoint" />
            <mxPoint x="106.5" y="53" as="targetPoint" />
          </mxGeometry>
        </mxCell>
        <mxCell id="omIhpatOHkibPJl4GQFj-11" value="" style="endArrow=none;html=1;rounded=0;exitX=1;exitY=0.5;exitDx=0;exitDy=0;entryX=0.119;entryY=0.839;entryDx=0;entryDy=0;entryPerimeter=0;fillColor=#dae8fc;strokeColor=#6c8ebf;" edge="1" parent="omIhpatOHkibPJl4GQFj-20" source="omIhpatOHkibPJl4GQFj-7" target="omIhpatOHkibPJl4GQFj-6">
          <mxGeometry width="50" height="50" relative="1" as="geometry">
            <mxPoint x="113.5" y="111" as="sourcePoint" />
            <mxPoint x="163.5" y="61" as="targetPoint" />
          </mxGeometry>
        </mxCell>
        <mxCell id="omIhpatOHkibPJl4GQFj-13" value="" style="ellipse;whiteSpace=wrap;html=1;aspect=fixed;fillColor=#dae8fc;strokeColor=#6c8ebf;" vertex="1" parent="omIhpatOHkibPJl4GQFj-20">
          <mxGeometry x="103.5" y="106" width="20" height="20" as="geometry" />
        </mxCell>
        <mxCell id="omIhpatOHkibPJl4GQFj-14" value="" style="endArrow=none;html=1;rounded=0;exitX=0;exitY=0;exitDx=0;exitDy=0;entryX=0.869;entryY=0.835;entryDx=0;entryDy=0;entryPerimeter=0;fillColor=#dae8fc;strokeColor=#6c8ebf;" edge="1" parent="omIhpatOHkibPJl4GQFj-20" source="omIhpatOHkibPJl4GQFj-13" target="omIhpatOHkibPJl4GQFj-6">
          <mxGeometry width="50" height="50" relative="1" as="geometry">
            <mxPoint x="68.5" y="126" as="sourcePoint" />
            <mxPoint x="80.5" y="98" as="targetPoint" />
          </mxGeometry>
        </mxCell>
        <mxCell id="iGKBdz3vK_Ewrd-PWQH9-20" value="&lt;font style=&quot;font-size: 11px;&quot;&gt;&lt;b style=&quot;font-size: 10px;&quot;&gt;&lt;font style=&quot;font-size: 10px;&quot;&gt;高斯分布潜在空间&lt;br&gt;&lt;/font&gt;&lt;/b&gt;&lt;/font&gt;" style="text;html=1;strokeColor=none;fillColor=none;align=center;verticalAlign=middle;whiteSpace=wrap;rounded=0;fontFamily=Times New Roman;" vertex="1" parent="omIhpatOHkibPJl4GQFj-20">
          <mxGeometry x="-14" y="-5" width="132.25" height="30" as="geometry" />
        </mxCell>
        <mxCell id="iGKBdz3vK_Ewrd-PWQH9-2" value="" style="group" vertex="1" connectable="0" parent="iGKBdz3vK_Ewrd-PWQH9-42">
          <mxGeometry y="21" width="205.75" height="130" as="geometry" />
        </mxCell>
        <mxCell id="iGKBdz3vK_Ewrd-PWQH9-3" value="" style="rounded=1;whiteSpace=wrap;html=1;strokeColor=#6c8ebf;fillColor=#dae8fc;rotation=90;" vertex="1" parent="iGKBdz3vK_Ewrd-PWQH9-2">
          <mxGeometry x="15" y="-15" width="130" height="160" as="geometry" />
        </mxCell>
        <mxCell id="iGKBdz3vK_Ewrd-PWQH9-4" value="" style="ellipse;whiteSpace=wrap;html=1;aspect=fixed;fillColor=#dae8fc;strokeColor=#6c8ebf;" vertex="1" parent="iGKBdz3vK_Ewrd-PWQH9-2">
          <mxGeometry x="38.5" y="5" width="20" height="20" as="geometry" />
        </mxCell>
        <mxCell id="iGKBdz3vK_Ewrd-PWQH9-5" value="" style="ellipse;whiteSpace=wrap;html=1;aspect=fixed;fillColor=#dae8fc;strokeColor=#6c8ebf;" vertex="1" parent="iGKBdz3vK_Ewrd-PWQH9-2">
          <mxGeometry x="73.5" y="15" width="20" height="20" as="geometry" />
        </mxCell>
        <mxCell id="iGKBdz3vK_Ewrd-PWQH9-6" value="" style="ellipse;whiteSpace=wrap;html=1;aspect=fixed;fillColor=#dae8fc;strokeColor=#6c8ebf;" vertex="1" parent="iGKBdz3vK_Ewrd-PWQH9-2">
          <mxGeometry x="23.5" y="60" width="20" height="20" as="geometry" />
        </mxCell>
        <mxCell id="iGKBdz3vK_Ewrd-PWQH9-7" value="" style="ellipse;whiteSpace=wrap;html=1;aspect=fixed;fillColor=#dae8fc;strokeColor=#6c8ebf;" vertex="1" parent="iGKBdz3vK_Ewrd-PWQH9-2">
          <mxGeometry x="68.5" y="70" width="20" height="20" as="geometry" />
        </mxCell>
        <mxCell id="iGKBdz3vK_Ewrd-PWQH9-8" value="" style="ellipse;whiteSpace=wrap;html=1;aspect=fixed;fillColor=#dae8fc;strokeColor=#6c8ebf;" vertex="1" parent="iGKBdz3vK_Ewrd-PWQH9-2">
          <mxGeometry x="38.5" y="105" width="20" height="20" as="geometry" />
        </mxCell>
        <mxCell id="iGKBdz3vK_Ewrd-PWQH9-9" value="" style="endArrow=none;html=1;rounded=0;exitX=1;exitY=0.5;exitDx=0;exitDy=0;entryX=0.071;entryY=0.315;entryDx=0;entryDy=0;entryPerimeter=0;fillColor=#dae8fc;strokeColor=#6c8ebf;" edge="1" parent="iGKBdz3vK_Ewrd-PWQH9-2" source="iGKBdz3vK_Ewrd-PWQH9-4" target="iGKBdz3vK_Ewrd-PWQH9-5">
          <mxGeometry width="50" height="50" relative="1" as="geometry">
            <mxPoint x="423.5" y="205" as="sourcePoint" />
            <mxPoint x="103.5" y="35" as="targetPoint" />
          </mxGeometry>
        </mxCell>
        <mxCell id="iGKBdz3vK_Ewrd-PWQH9-10" value="" style="endArrow=none;html=1;rounded=0;exitX=1;exitY=0;exitDx=0;exitDy=0;entryX=0;entryY=1;entryDx=0;entryDy=0;fillColor=#dae8fc;strokeColor=#6c8ebf;" edge="1" parent="iGKBdz3vK_Ewrd-PWQH9-2" source="iGKBdz3vK_Ewrd-PWQH9-6" target="iGKBdz3vK_Ewrd-PWQH9-5">
          <mxGeometry width="50" height="50" relative="1" as="geometry">
            <mxPoint x="143.5" y="60" as="sourcePoint" />
            <mxPoint x="193.5" y="10" as="targetPoint" />
          </mxGeometry>
        </mxCell>
        <mxCell id="iGKBdz3vK_Ewrd-PWQH9-11" value="" style="endArrow=none;html=1;rounded=0;exitX=0.93;exitY=0.75;exitDx=0;exitDy=0;entryX=0.09;entryY=0.21;entryDx=0;entryDy=0;exitPerimeter=0;entryPerimeter=0;fillColor=#dae8fc;strokeColor=#6c8ebf;" edge="1" parent="iGKBdz3vK_Ewrd-PWQH9-2" source="iGKBdz3vK_Ewrd-PWQH9-6" target="iGKBdz3vK_Ewrd-PWQH9-7">
          <mxGeometry width="50" height="50" relative="1" as="geometry">
            <mxPoint x="90.5" y="68" as="sourcePoint" />
            <mxPoint x="106.5" y="52" as="targetPoint" />
          </mxGeometry>
        </mxCell>
        <mxCell id="iGKBdz3vK_Ewrd-PWQH9-12" value="" style="endArrow=none;html=1;rounded=0;exitX=1;exitY=0.5;exitDx=0;exitDy=0;entryX=0.119;entryY=0.839;entryDx=0;entryDy=0;entryPerimeter=0;fillColor=#dae8fc;strokeColor=#6c8ebf;" edge="1" parent="iGKBdz3vK_Ewrd-PWQH9-2" source="iGKBdz3vK_Ewrd-PWQH9-8" target="iGKBdz3vK_Ewrd-PWQH9-7">
          <mxGeometry width="50" height="50" relative="1" as="geometry">
            <mxPoint x="113.5" y="110" as="sourcePoint" />
            <mxPoint x="163.5" y="60" as="targetPoint" />
          </mxGeometry>
        </mxCell>
        <mxCell id="iGKBdz3vK_Ewrd-PWQH9-13" value="" style="endArrow=none;html=1;rounded=0;entryX=0.5;entryY=0.967;entryDx=0;entryDy=0;entryPerimeter=0;exitX=0.578;exitY=0.017;exitDx=0;exitDy=0;exitPerimeter=0;fillColor=#dae8fc;strokeColor=#6c8ebf;" edge="1" parent="iGKBdz3vK_Ewrd-PWQH9-2" source="iGKBdz3vK_Ewrd-PWQH9-7" target="iGKBdz3vK_Ewrd-PWQH9-5">
          <mxGeometry width="50" height="50" relative="1" as="geometry">
            <mxPoint x="63.5" y="135" as="sourcePoint" />
            <mxPoint x="113.5" y="85" as="targetPoint" />
          </mxGeometry>
        </mxCell>
        <mxCell id="iGKBdz3vK_Ewrd-PWQH9-14" value="" style="ellipse;whiteSpace=wrap;html=1;aspect=fixed;fillColor=#dae8fc;strokeColor=#6c8ebf;" vertex="1" parent="iGKBdz3vK_Ewrd-PWQH9-2">
          <mxGeometry x="103.5" y="105" width="20" height="20" as="geometry" />
        </mxCell>
        <mxCell id="iGKBdz3vK_Ewrd-PWQH9-15" value="" style="endArrow=none;html=1;rounded=0;exitX=0;exitY=0;exitDx=0;exitDy=0;entryX=0.869;entryY=0.835;entryDx=0;entryDy=0;entryPerimeter=0;fillColor=#dae8fc;strokeColor=#6c8ebf;" edge="1" parent="iGKBdz3vK_Ewrd-PWQH9-2" source="iGKBdz3vK_Ewrd-PWQH9-14" target="iGKBdz3vK_Ewrd-PWQH9-7">
          <mxGeometry width="50" height="50" relative="1" as="geometry">
            <mxPoint x="68.5" y="125" as="sourcePoint" />
            <mxPoint x="80.5" y="97" as="targetPoint" />
          </mxGeometry>
        </mxCell>
        <mxCell id="iGKBdz3vK_Ewrd-PWQH9-16" value="" style="ellipse;whiteSpace=wrap;html=1;aspect=fixed;fillColor=#dae8fc;strokeColor=#6c8ebf;" vertex="1" parent="iGKBdz3vK_Ewrd-PWQH9-2">
          <mxGeometry x="113.5" y="5" width="20" height="20" as="geometry" />
        </mxCell>
        <mxCell id="iGKBdz3vK_Ewrd-PWQH9-17" value="" style="endArrow=none;html=1;rounded=0;exitX=1;exitY=0;exitDx=0;exitDy=0;entryX=0.5;entryY=1;entryDx=0;entryDy=0;fillColor=#dae8fc;strokeColor=#6c8ebf;" edge="1" parent="iGKBdz3vK_Ewrd-PWQH9-2" source="iGKBdz3vK_Ewrd-PWQH9-7" target="iGKBdz3vK_Ewrd-PWQH9-16">
          <mxGeometry width="50" height="50" relative="1" as="geometry">
            <mxPoint x="50.5" y="73" as="sourcePoint" />
            <mxPoint x="86.5" y="42" as="targetPoint" />
          </mxGeometry>
        </mxCell>
        <mxCell id="iGKBdz3vK_Ewrd-PWQH9-18" value="" style="endArrow=none;html=1;rounded=0;exitX=0.5;exitY=0;exitDx=0;exitDy=0;entryX=0;entryY=1;entryDx=0;entryDy=0;fillColor=#dae8fc;strokeColor=#6c8ebf;" edge="1" parent="iGKBdz3vK_Ewrd-PWQH9-2" source="iGKBdz3vK_Ewrd-PWQH9-6" target="iGKBdz3vK_Ewrd-PWQH9-4">
          <mxGeometry width="50" height="50" relative="1" as="geometry">
            <mxPoint x="95.5" y="83" as="sourcePoint" />
            <mxPoint x="133.5" y="35" as="targetPoint" />
          </mxGeometry>
        </mxCell>
        <mxCell id="iGKBdz3vK_Ewrd-PWQH9-38" value="&lt;font style=&quot;font-size: 11px;&quot;&gt;&lt;b style=&quot;font-size: 10px;&quot;&gt;&lt;font style=&quot;font-size: 10px;&quot;&gt;GAT&lt;br&gt;&lt;/font&gt;&lt;/b&gt;&lt;/font&gt;" style="text;html=1;strokeColor=none;fillColor=none;align=center;verticalAlign=middle;whiteSpace=wrap;rounded=0;fontFamily=Times New Roman;" vertex="1" parent="iGKBdz3vK_Ewrd-PWQH9-2">
          <mxGeometry x="-45.75" y="-4" width="132.25" height="30" as="geometry" />
        </mxCell>
        <mxCell id="iGKBdz3vK_Ewrd-PWQH9-40" value="&lt;font style=&quot;font-size: 10px;&quot;&gt;&lt;b&gt;t-1时刻&lt;br&gt;&lt;/b&gt;&lt;/font&gt;" style="text;html=1;strokeColor=none;fillColor=none;align=center;verticalAlign=middle;whiteSpace=wrap;rounded=0;fontFamily=Times New Roman;" vertex="1" parent="iGKBdz3vK_Ewrd-PWQH9-2">
          <mxGeometry x="73.5" y="100" width="132.25" height="30" as="geometry" />
        </mxCell>
        <mxCell id="iGKBdz3vK_Ewrd-PWQH9-45" value="" style="endArrow=blockThin;startArrow=blockThin;html=1;rounded=0;exitX=0.437;exitY=0.1;exitDx=0;exitDy=0;exitPerimeter=0;dashed=1;strokeWidth=2;endFill=1;startFill=1;fillColor=#f8cecc;strokeColor=#b85450;startSize=2;endSize=2;" edge="1" parent="1" source="iGKBdz3vK_Ewrd-PWQH9-38">
          <mxGeometry width="50" height="50" relative="1" as="geometry">
            <mxPoint x="450" y="550" as="sourcePoint" />
            <mxPoint x="500" y="500" as="targetPoint" />
          </mxGeometry>
        </mxCell>
        <mxCell id="iGKBdz3vK_Ewrd-PWQH9-46" value="" style="endArrow=blockThin;startArrow=blockThin;html=1;rounded=0;dashed=1;strokeWidth=2;endFill=1;startFill=1;fillColor=#f8cecc;strokeColor=#b85450;startSize=2;endSize=2;" edge="1" parent="1">
          <mxGeometry width="50" height="50" relative="1" as="geometry">
            <mxPoint x="530" y="550" as="sourcePoint" />
            <mxPoint x="530" y="500" as="targetPoint" />
          </mxGeometry>
        </mxCell>
        <mxCell id="iGKBdz3vK_Ewrd-PWQH9-47" value="" style="endArrow=blockThin;startArrow=blockThin;html=1;rounded=0;dashed=1;strokeWidth=2;endFill=1;startFill=1;fillColor=#f8cecc;strokeColor=#b85450;endSize=2;startSize=2;" edge="1" parent="1">
          <mxGeometry width="50" height="50" relative="1" as="geometry">
            <mxPoint x="560" y="530" as="sourcePoint" />
            <mxPoint x="560" y="500" as="targetPoint" />
          </mxGeometry>
        </mxCell>
        <mxCell id="iGKBdz3vK_Ewrd-PWQH9-48" value="" style="shape=flexArrow;endArrow=classic;html=1;rounded=0;fillColor=#4d9900;strokeColor=none;endSize=6;startSize=6;fontFamily=Times New Roman;" edge="1" parent="1">
          <mxGeometry width="50" height="50" relative="1" as="geometry">
            <mxPoint x="351.25" y="639.71" as="sourcePoint" />
            <mxPoint x="471.25" y="639.71" as="targetPoint" />
          </mxGeometry>
        </mxCell>
        <mxCell id="iGKBdz3vK_Ewrd-PWQH9-50" value="" style="shape=flexArrow;endArrow=classic;html=1;rounded=0;fillColor=#008080;strokeColor=none;endSize=6;startSize=6;fontFamily=Times New Roman;" edge="1" parent="1">
          <mxGeometry width="50" height="50" relative="1" as="geometry">
            <mxPoint x="716" y="639.58" as="sourcePoint" />
            <mxPoint x="820" y="640" as="targetPoint" />
          </mxGeometry>
        </mxCell>
        <mxCell id="iGKBdz3vK_Ewrd-PWQH9-51" value="&lt;font color=&quot;#008080&quot;&gt;&lt;b&gt;&lt;font style=&quot;font-size: 20px;&quot;&gt;(c)&lt;/font&gt;&lt;/b&gt;&lt;/font&gt;" style="text;html=1;strokeColor=none;fillColor=none;align=center;verticalAlign=middle;whiteSpace=wrap;rounded=0;fontFamily=Times New Roman;" vertex="1" parent="1">
          <mxGeometry x="754.75" y="421" width="60" height="30" as="geometry" />
        </mxCell>
        <mxCell id="iGKBdz3vK_Ewrd-PWQH9-52" value="&lt;font style=&quot;font-size: 20px;&quot;&gt;&lt;b&gt;拓扑因果得分模块&lt;br&gt;&lt;/b&gt;&lt;/font&gt;" style="text;html=1;strokeColor=none;fillColor=none;align=center;verticalAlign=middle;whiteSpace=wrap;rounded=0;fontFamily=Times New Roman;" vertex="1" parent="1">
          <mxGeometry x="798" y="429.25" width="171" height="17.5" as="geometry" />
        </mxCell>
        <mxCell id="g2C1JsmWA71TBDgxtGOA-1" value="" style="rounded=1;whiteSpace=wrap;html=1;strokeColor=#6c8ebf;fillColor=#dae8fc;" vertex="1" parent="1">
          <mxGeometry x="824" y="505" width="170" height="190" as="geometry" />
        </mxCell>
        <mxCell id="g2C1JsmWA71TBDgxtGOA-3" value="1" style="ellipse;whiteSpace=wrap;html=1;aspect=fixed;fillColor=#e51400;strokeColor=#B20000;fontColor=#ffffff;" vertex="1" parent="1">
          <mxGeometry x="869" y="535" width="20" height="20" as="geometry" />
        </mxCell>
        <mxCell id="g2C1JsmWA71TBDgxtGOA-4" value="4" style="ellipse;whiteSpace=wrap;html=1;aspect=fixed;fillColor=#e51400;strokeColor=#B20000;fontColor=#ffffff;" vertex="1" parent="1">
          <mxGeometry x="904" y="545" width="20" height="20" as="geometry" />
        </mxCell>
        <mxCell id="g2C1JsmWA71TBDgxtGOA-5" value="2" style="ellipse;whiteSpace=wrap;html=1;aspect=fixed;fillColor=#e51400;strokeColor=#B20000;fontColor=#ffffff;" vertex="1" parent="1">
          <mxGeometry x="854" y="590" width="20" height="20" as="geometry" />
        </mxCell>
        <mxCell id="g2C1JsmWA71TBDgxtGOA-6" value="3" style="ellipse;whiteSpace=wrap;html=1;aspect=fixed;fillColor=#e51400;strokeColor=#B20000;fontColor=#ffffff;" vertex="1" parent="1">
          <mxGeometry x="899" y="600" width="20" height="20" as="geometry" />
        </mxCell>
        <mxCell id="g2C1JsmWA71TBDgxtGOA-7" value="" style="ellipse;whiteSpace=wrap;html=1;aspect=fixed;fillColor=#dae8fc;strokeColor=#6c8ebf;" vertex="1" parent="1">
          <mxGeometry x="869" y="635" width="20" height="20" as="geometry" />
        </mxCell>
        <mxCell id="g2C1JsmWA71TBDgxtGOA-8" value="" style="endArrow=none;html=1;rounded=0;exitX=1;exitY=0.5;exitDx=0;exitDy=0;entryX=0.071;entryY=0.315;entryDx=0;entryDy=0;entryPerimeter=0;fillColor=#e51400;strokeColor=#B20000;" edge="1" parent="1" source="g2C1JsmWA71TBDgxtGOA-3" target="g2C1JsmWA71TBDgxtGOA-4">
          <mxGeometry width="50" height="50" relative="1" as="geometry">
            <mxPoint x="1254" y="735" as="sourcePoint" />
            <mxPoint x="934" y="565" as="targetPoint" />
          </mxGeometry>
        </mxCell>
        <mxCell id="g2C1JsmWA71TBDgxtGOA-9" value="" style="endArrow=none;html=1;rounded=0;exitX=1;exitY=0;exitDx=0;exitDy=0;entryX=0;entryY=1;entryDx=0;entryDy=0;fillColor=#dae8fc;strokeColor=#6c8ebf;" edge="1" parent="1" source="g2C1JsmWA71TBDgxtGOA-5" target="g2C1JsmWA71TBDgxtGOA-4">
          <mxGeometry width="50" height="50" relative="1" as="geometry">
            <mxPoint x="974" y="590" as="sourcePoint" />
            <mxPoint x="1024" y="540" as="targetPoint" />
          </mxGeometry>
        </mxCell>
        <mxCell id="g2C1JsmWA71TBDgxtGOA-10" value="" style="endArrow=none;html=1;rounded=0;exitX=0.93;exitY=0.75;exitDx=0;exitDy=0;entryX=0.09;entryY=0.21;entryDx=0;entryDy=0;exitPerimeter=0;entryPerimeter=0;fillColor=#e51400;strokeColor=#B20000;" edge="1" parent="1" source="g2C1JsmWA71TBDgxtGOA-5" target="g2C1JsmWA71TBDgxtGOA-6">
          <mxGeometry width="50" height="50" relative="1" as="geometry">
            <mxPoint x="921" y="598" as="sourcePoint" />
            <mxPoint x="937" y="582" as="targetPoint" />
          </mxGeometry>
        </mxCell>
        <mxCell id="g2C1JsmWA71TBDgxtGOA-11" value="" style="endArrow=none;html=1;rounded=0;exitX=1;exitY=0.5;exitDx=0;exitDy=0;entryX=0.119;entryY=0.839;entryDx=0;entryDy=0;entryPerimeter=0;fillColor=#dae8fc;strokeColor=#6c8ebf;" edge="1" parent="1" source="g2C1JsmWA71TBDgxtGOA-7" target="g2C1JsmWA71TBDgxtGOA-6">
          <mxGeometry width="50" height="50" relative="1" as="geometry">
            <mxPoint x="944" y="640" as="sourcePoint" />
            <mxPoint x="994" y="590" as="targetPoint" />
          </mxGeometry>
        </mxCell>
        <mxCell id="g2C1JsmWA71TBDgxtGOA-12" value="" style="endArrow=none;html=1;rounded=0;entryX=0.5;entryY=0.967;entryDx=0;entryDy=0;entryPerimeter=0;exitX=0.578;exitY=0.017;exitDx=0;exitDy=0;exitPerimeter=0;fillColor=#dae8fc;strokeColor=#6c8ebf;" edge="1" parent="1" source="g2C1JsmWA71TBDgxtGOA-6" target="g2C1JsmWA71TBDgxtGOA-4">
          <mxGeometry width="50" height="50" relative="1" as="geometry">
            <mxPoint x="919" y="665" as="sourcePoint" />
            <mxPoint x="969" y="615" as="targetPoint" />
          </mxGeometry>
        </mxCell>
        <mxCell id="g2C1JsmWA71TBDgxtGOA-13" value="" style="ellipse;whiteSpace=wrap;html=1;aspect=fixed;fillColor=#dae8fc;strokeColor=#6c8ebf;" vertex="1" parent="1">
          <mxGeometry x="934" y="635" width="20" height="20" as="geometry" />
        </mxCell>
        <mxCell id="g2C1JsmWA71TBDgxtGOA-14" value="" style="endArrow=none;html=1;rounded=0;exitX=0;exitY=0;exitDx=0;exitDy=0;entryX=0.869;entryY=0.835;entryDx=0;entryDy=0;entryPerimeter=0;fillColor=#dae8fc;strokeColor=#6c8ebf;" edge="1" parent="1" source="g2C1JsmWA71TBDgxtGOA-13" target="g2C1JsmWA71TBDgxtGOA-6">
          <mxGeometry width="50" height="50" relative="1" as="geometry">
            <mxPoint x="924" y="655" as="sourcePoint" />
            <mxPoint x="936" y="627" as="targetPoint" />
          </mxGeometry>
        </mxCell>
        <mxCell id="g2C1JsmWA71TBDgxtGOA-15" value="" style="ellipse;whiteSpace=wrap;html=1;aspect=fixed;fillColor=#dae8fc;strokeColor=#6c8ebf;" vertex="1" parent="1">
          <mxGeometry x="944" y="535" width="20" height="20" as="geometry" />
        </mxCell>
        <mxCell id="g2C1JsmWA71TBDgxtGOA-16" value="" style="endArrow=none;html=1;rounded=0;exitX=1;exitY=0;exitDx=0;exitDy=0;entryX=0.5;entryY=1;entryDx=0;entryDy=0;fillColor=#dae8fc;strokeColor=#6c8ebf;" edge="1" parent="1" source="g2C1JsmWA71TBDgxtGOA-6" target="g2C1JsmWA71TBDgxtGOA-15">
          <mxGeometry width="50" height="50" relative="1" as="geometry">
            <mxPoint x="881" y="603" as="sourcePoint" />
            <mxPoint x="917" y="572" as="targetPoint" />
          </mxGeometry>
        </mxCell>
        <mxCell id="g2C1JsmWA71TBDgxtGOA-17" value="" style="endArrow=none;html=1;rounded=0;exitX=0.5;exitY=0;exitDx=0;exitDy=0;entryX=0;entryY=1;entryDx=0;entryDy=0;fillColor=#e51400;strokeColor=#B20000;" edge="1" parent="1" source="g2C1JsmWA71TBDgxtGOA-5" target="g2C1JsmWA71TBDgxtGOA-3">
          <mxGeometry width="50" height="50" relative="1" as="geometry">
            <mxPoint x="926" y="613" as="sourcePoint" />
            <mxPoint x="964" y="565" as="targetPoint" />
          </mxGeometry>
        </mxCell>
        <mxCell id="g2C1JsmWA71TBDgxtGOA-18" value="&lt;font style=&quot;font-size: 12px;&quot;&gt;&lt;b style=&quot;font-size: 16px;&quot;&gt;&lt;font style=&quot;font-size: 16px;&quot;&gt;重启随机游走&lt;br&gt;&lt;/font&gt;&lt;/b&gt;&lt;/font&gt;" style="text;html=1;strokeColor=none;fillColor=none;align=center;verticalAlign=middle;whiteSpace=wrap;rounded=0;fontFamily=Times New Roman;" vertex="1" parent="1">
          <mxGeometry x="842.88" y="463.5" width="132.25" height="30" as="geometry" />
        </mxCell>
        <mxCell id="g2C1JsmWA71TBDgxtGOA-19" value="" style="shape=flexArrow;endArrow=classic;html=1;rounded=0;fillColor=#FFB570;strokeColor=none;endSize=6;startSize=6;fontFamily=Times New Roman;" edge="1" parent="1">
          <mxGeometry width="50" height="50" relative="1" as="geometry">
            <mxPoint x="421" y="901" as="sourcePoint" />
            <mxPoint x="530" y="900" as="targetPoint" />
          </mxGeometry>
        </mxCell>
        <mxCell id="DYp9o-DkFmVBabW9ibaX-1" value="" style="whiteSpace=wrap;html=1;aspect=fixed;strokeColor=#6c8ebf;fontFamily=Times New Roman;fontSize=8.5;fillColor=#dae8fc;" vertex="1" parent="1">
          <mxGeometry x="542.5" y="852" width="99" height="99" as="geometry" />
        </mxCell>
        <mxCell id="DYp9o-DkFmVBabW9ibaX-2" value="&lt;font size=&quot;1&quot;&gt;&lt;b style=&quot;font-size: 16px;&quot;&gt;SPD原始矩阵&lt;/b&gt;&lt;/font&gt;" style="text;html=1;strokeColor=none;fillColor=none;align=center;verticalAlign=middle;whiteSpace=wrap;rounded=0;fontFamily=Times New Roman;" vertex="1" parent="1">
          <mxGeometry x="540.75" y="962" width="102.5" height="30" as="geometry" />
        </mxCell>
        <mxCell id="DYp9o-DkFmVBabW9ibaX-5" value="&lt;font size=&quot;1&quot;&gt;&lt;b style=&quot;font-size: 16px;&quot;&gt;SPD重构矩阵&lt;/b&gt;&lt;/font&gt;" style="text;html=1;strokeColor=none;fillColor=none;align=center;verticalAlign=middle;whiteSpace=wrap;rounded=0;fontFamily=Times New Roman;" vertex="1" parent="1">
          <mxGeometry x="887" y="962" width="98" height="30" as="geometry" />
        </mxCell>
        <mxCell id="DYp9o-DkFmVBabW9ibaX-7" value="" style="whiteSpace=wrap;html=1;aspect=fixed;strokeColor=#d79b00;fontFamily=Times New Roman;fontSize=8.5;fillColor=#ffe6cc;" vertex="1" parent="1">
          <mxGeometry x="886" y="852" width="99" height="99" as="geometry" />
        </mxCell>
        <mxCell id="DYp9o-DkFmVBabW9ibaX-8" value="" style="rounded=0;whiteSpace=wrap;html=1;rotation=45;fillColor=#66B2FF;strokeColor=#59769E;" vertex="1" parent="1">
          <mxGeometry x="532" y="891.5" width="120" height="20" as="geometry" />
        </mxCell>
        <mxCell id="DYp9o-DkFmVBabW9ibaX-9" value="" style="rounded=0;whiteSpace=wrap;html=1;rotation=45;fillColor=#FFFF99;strokeColor=#59769E;" vertex="1" parent="1">
          <mxGeometry x="875.5" y="891.5" width="120" height="20" as="geometry" />
        </mxCell>
        <mxCell id="DYp9o-DkFmVBabW9ibaX-10" value="&lt;b&gt;&lt;font style=&quot;font-size: 20px;&quot;&gt;SPDAE&lt;/font&gt;&lt;/b&gt;" style="rounded=0;whiteSpace=wrap;html=1;strokeWidth=3;fillColor=none;fontFamily=Times New Roman;" vertex="1" parent="1">
          <mxGeometry x="679" y="861.5" width="170" height="80" as="geometry" />
        </mxCell>
        <mxCell id="DYp9o-DkFmVBabW9ibaX-11" value="" style="shape=flexArrow;endArrow=classic;html=1;rounded=0;fillColor=#808080;strokeColor=none;fontFamily=Times New Roman;exitX=1;exitY=0.5;exitDx=0;exitDy=0;" edge="1" parent="1" source="DYp9o-DkFmVBabW9ibaX-1">
          <mxGeometry width="50" height="50" relative="1" as="geometry">
            <mxPoint x="649" y="901" as="sourcePoint" />
            <mxPoint x="679" y="901" as="targetPoint" />
          </mxGeometry>
        </mxCell>
        <mxCell id="DYp9o-DkFmVBabW9ibaX-13" value="" style="shape=flexArrow;endArrow=classic;html=1;rounded=0;fillColor=#808080;strokeColor=none;fontFamily=Times New Roman;exitX=1;exitY=0.5;exitDx=0;exitDy=0;" edge="1" parent="1">
          <mxGeometry width="50" height="50" relative="1" as="geometry">
            <mxPoint x="850" y="902" as="sourcePoint" />
            <mxPoint x="887" y="901" as="targetPoint" />
          </mxGeometry>
        </mxCell>
        <mxCell id="DYp9o-DkFmVBabW9ibaX-14" value="" style="shape=flexArrow;endArrow=classic;startArrow=classic;html=1;rounded=0;entryX=0.521;entryY=-0.331;entryDx=0;entryDy=0;entryPerimeter=0;fillColor=#f8cecc;strokeColor=#b85450;" edge="1" parent="1" target="DYp9o-DkFmVBabW9ibaX-9">
          <mxGeometry width="100" height="100" relative="1" as="geometry">
            <mxPoint x="600.5" y="891.5" as="sourcePoint" />
            <mxPoint x="960.5" y="891.5" as="targetPoint" />
            <Array as="points">
              <mxPoint x="599" y="821" />
              <mxPoint x="779" y="821" />
              <mxPoint x="949" y="821" />
              <mxPoint x="949" y="851" />
            </Array>
          </mxGeometry>
        </mxCell>
        <mxCell id="DYp9o-DkFmVBabW9ibaX-15" value="&lt;font style=&quot;font-size: 12px;&quot;&gt;&lt;b style=&quot;font-size: 16px;&quot;&gt;&lt;font style=&quot;font-size: 16px;&quot;&gt;主对角线重构差异&lt;br&gt;&lt;/font&gt;&lt;/b&gt;&lt;/font&gt;" style="text;html=1;strokeColor=none;fillColor=none;align=center;verticalAlign=middle;whiteSpace=wrap;rounded=0;fontFamily=Times New Roman;" vertex="1" parent="1">
          <mxGeometry x="700.62" y="753" width="132.25" height="30" as="geometry" />
        </mxCell>
        <mxCell id="DYp9o-DkFmVBabW9ibaX-17" value="&lt;font color=&quot;#ffb570&quot;&gt;&lt;b&gt;&lt;font style=&quot;font-size: 20px;&quot;&gt;(d)&lt;/font&gt;&lt;/b&gt;&lt;/font&gt;" style="text;html=1;strokeColor=none;fillColor=none;align=center;verticalAlign=middle;whiteSpace=wrap;rounded=0;fontFamily=Times New Roman;" vertex="1" parent="1">
          <mxGeometry x="428.25" y="753" width="60" height="30" as="geometry" />
        </mxCell>
        <mxCell id="DYp9o-DkFmVBabW9ibaX-18" value="&lt;font style=&quot;font-size: 20px;&quot;&gt;&lt;b&gt;个体因果得分模块&lt;br&gt;&lt;/b&gt;&lt;/font&gt;" style="text;html=1;strokeColor=none;fillColor=none;align=center;verticalAlign=middle;whiteSpace=wrap;rounded=0;fontFamily=Times New Roman;" vertex="1" parent="1">
          <mxGeometry x="471.5" y="761.25" width="171" height="17.5" as="geometry" />
        </mxCell>
        <mxCell id="DYp9o-DkFmVBabW9ibaX-19" value="" style="shape=flexArrow;endArrow=classic;html=1;rounded=0;fillColor=#CC0066;strokeColor=none;" edge="1" parent="1">
          <mxGeometry width="50" height="50" relative="1" as="geometry">
            <mxPoint x="1020" y="485" as="sourcePoint" />
            <mxPoint x="1180" y="600" as="targetPoint" />
            <Array as="points">
              <mxPoint x="1180" y="485" />
            </Array>
          </mxGeometry>
        </mxCell>
        <mxCell id="DYp9o-DkFmVBabW9ibaX-24" value="" style="shape=flexArrow;endArrow=classic;html=1;rounded=0;fillColor=#CC0066;strokeColor=none;" edge="1" parent="1">
          <mxGeometry width="50" height="50" relative="1" as="geometry">
            <mxPoint x="1020" y="933" as="sourcePoint" />
            <mxPoint x="1180" y="821.5" as="targetPoint" />
            <Array as="points">
              <mxPoint x="1180" y="933" />
            </Array>
          </mxGeometry>
        </mxCell>
        <mxCell id="DYp9o-DkFmVBabW9ibaX-25" value="" style="group;fillColor=none;container=0;" vertex="1" connectable="0" parent="1">
          <mxGeometry x="1090" y="647" width="180" height="166" as="geometry" />
        </mxCell>
        <mxCell id="DYp9o-DkFmVBabW9ibaX-30" value="&lt;font size=&quot;1&quot;&gt;&lt;b style=&quot;font-size: 16px;&quot;&gt;v&lt;sub&gt;i&lt;/sub&gt;&lt;/b&gt;&lt;/font&gt;" style="rounded=1;whiteSpace=wrap;html=1;dashed=1;fillStyle=dots;strokeColor=none;fillColor=none;" vertex="1" parent="1">
          <mxGeometry x="1040" y="719" width="60" height="20" as="geometry" />
        </mxCell>
        <mxCell id="DYp9o-DkFmVBabW9ibaX-34" value="&lt;font style=&quot;font-size: 12px;&quot;&gt;&lt;b style=&quot;font-size: 16px;&quot;&gt;&lt;font style=&quot;font-size: 16px;&quot;&gt;TOPK根因候选&lt;br&gt;&lt;/font&gt;&lt;/b&gt;&lt;/font&gt;" style="text;html=1;strokeColor=none;fillColor=none;align=center;verticalAlign=middle;whiteSpace=wrap;rounded=0;fontFamily=Times New Roman;" vertex="1" parent="1">
          <mxGeometry x="1113.87" y="610" width="132.25" height="30" as="geometry" />
        </mxCell>
        <mxCell id="DYp9o-DkFmVBabW9ibaX-35" value="&lt;font style=&quot;font-size: 16px;&quot; face=&quot;Verdana&quot;&gt;× (1-&lt;/font&gt;&lt;span style=&quot;font-size:12.0pt;font-family:宋体;&lt;br/&gt;mso-bidi-font-family:&amp;quot;Times New Roman&amp;quot;;mso-font-kerning:1.0pt;mso-ansi-language:&lt;br/&gt;EN-US;mso-fareast-language:ZH-CN;mso-bidi-language:AR-SA&quot;&gt;γ&lt;/span&gt;&lt;font style=&quot;font-size: 16px;&quot; face=&quot;Verdana&quot;&gt;)&lt;/font&gt;" style="rounded=1;whiteSpace=wrap;html=1;dashed=1;fillStyle=dots;strokeColor=none;fillColor=none;" vertex="1" parent="1">
          <mxGeometry x="1190" y="530" width="80" height="20" as="geometry" />
        </mxCell>
        <mxCell id="DYp9o-DkFmVBabW9ibaX-36" value="" style="group;strokeColor=default;" vertex="1" connectable="0" parent="1">
          <mxGeometry x="1090" y="647" width="180" height="164" as="geometry" />
        </mxCell>
        <mxCell id="DYp9o-DkFmVBabW9ibaX-26" value="" style="rounded=0;whiteSpace=wrap;html=1;fillColor=#FF0000;strokeColor=none;opacity=90;" vertex="1" parent="DYp9o-DkFmVBabW9ibaX-36">
          <mxGeometry width="180" height="33" as="geometry" />
        </mxCell>
        <mxCell id="DYp9o-DkFmVBabW9ibaX-27" value="" style="rounded=0;whiteSpace=wrap;html=1;fillColor=#FF0000;strokeColor=none;opacity=80;" vertex="1" parent="DYp9o-DkFmVBabW9ibaX-36">
          <mxGeometry y="33" width="150" height="33" as="geometry" />
        </mxCell>
        <mxCell id="DYp9o-DkFmVBabW9ibaX-31" value="" style="rounded=0;whiteSpace=wrap;html=1;fillColor=#FF0000;strokeColor=none;opacity=60;" vertex="1" parent="DYp9o-DkFmVBabW9ibaX-36">
          <mxGeometry y="65.5" width="130" height="33" as="geometry" />
        </mxCell>
        <mxCell id="DYp9o-DkFmVBabW9ibaX-32" value="" style="rounded=0;whiteSpace=wrap;html=1;fillColor=#FF0000;strokeColor=none;opacity=40;" vertex="1" parent="DYp9o-DkFmVBabW9ibaX-36">
          <mxGeometry y="98" width="90" height="33" as="geometry" />
        </mxCell>
        <mxCell id="DYp9o-DkFmVBabW9ibaX-33" value="" style="rounded=0;whiteSpace=wrap;html=1;fillColor=#FF0000;strokeColor=none;opacity=20;" vertex="1" parent="DYp9o-DkFmVBabW9ibaX-36">
          <mxGeometry y="131" width="60" height="33" as="geometry" />
        </mxCell>
        <mxCell id="DYp9o-DkFmVBabW9ibaX-37" value="&lt;font style=&quot;font-size: 16px;&quot; face=&quot;Verdana&quot;&gt;× &lt;/font&gt;&lt;span style=&quot;font-size:12.0pt;font-family:宋体;&lt;br/&gt;mso-bidi-font-family:&amp;quot;Times New Roman&amp;quot;;mso-font-kerning:1.0pt;mso-ansi-language:&lt;br/&gt;EN-US;mso-fareast-language:ZH-CN;mso-bidi-language:AR-SA&quot;&gt;γ&lt;/span&gt;" style="rounded=1;whiteSpace=wrap;html=1;dashed=1;fillStyle=dots;strokeColor=none;fillColor=none;" vertex="1" parent="1">
          <mxGeometry x="1190" y="873" width="60" height="20" as="geometry" />
        </mxCell>
        <mxCell id="DYp9o-DkFmVBabW9ibaX-39" value="&lt;font color=&quot;#cc0066&quot;&gt;&lt;b&gt;&lt;font style=&quot;font-size: 20px;&quot;&gt;(e)&lt;/font&gt;&lt;/b&gt;&lt;/font&gt;" style="text;html=1;strokeColor=none;fillColor=none;align=center;verticalAlign=middle;whiteSpace=wrap;rounded=0;fontFamily=Times New Roman;" vertex="1" parent="1">
          <mxGeometry x="1030" y="422" width="60" height="30" as="geometry" />
        </mxCell>
        <mxCell id="DYp9o-DkFmVBabW9ibaX-40" value="&lt;font style=&quot;font-size: 20px;&quot;&gt;&lt;b&gt;因果整合模块&lt;br&gt;&lt;/b&gt;&lt;/font&gt;" style="text;html=1;strokeColor=none;fillColor=none;align=center;verticalAlign=middle;whiteSpace=wrap;rounded=0;fontFamily=Times New Roman;" vertex="1" parent="1">
          <mxGeometry x="1058.25" y="424" width="169" height="30" as="geometry" />
        </mxCell>
      </root>
    </mxGraphModel>
  </diagram>
</mxfile>
